<?xml version="1.0" encoding="UTF-8"?><svg id="Layer_1" xmlns="http://www.w3.org/2000/svg" xmlns:xlink="http://www.w3.org/1999/xlink" viewBox="0 0 3000 3000"><defs><style>.cls-1{fill:#00a40f;}.cls-1,.cls-2,.cls-3,.cls-4{stroke-width:0px;}.cls-5{clip-path:url(#clippath);}.cls-2,.cls-6,.cls-4{fill:#000;}.cls-6{fill-rule:evenodd;}.cls-3{fill:red;}.cls-4{clip-rule:evenodd;}</style><clipPath id="clippath"><path class="cls-4" d="M1328.52,710.21q12.18-.83,26.11-.79,14.01,1.18,28.87,3.38-19.11,6.65-37.89,14.1-19.96,8.51-39.51,17.75-13.94-4.03-27.78-6.86-12.94-1.83-24.9-2.66,19.53-7.66,38.58-14.37,18.54-5.75,36.52-10.54M1490.75,695.2q16.1,2.14,32.9,5.28,17.43,4.12,35.45,9.23-16.21,3.87-33.06,8.74-17.41,5.85-35.32,12.66-17.89-6.84-35.3-12.71-16.82-4.89-33.03-8.79,17.22-5.02,34.65-9.14,16.79-3.12,33.71-5.26ZM1652.18,710.3q18.76,4.98,37.29,10.76,19.05,6.74,37.8,14.2-11.97.83-24.91,2.64-13.09,3.03-27.8,6.85-19.54-9.24-38.72-17.62-19.54-7.61-37.86-14.17,14.86-2.17,28.87-3.34,13.14-.15,25.32.68ZM997.37,862.58q3.6.72,8.68,2.09,5.9,2.52,13.25,5.72-19.36,16.17-37.7,32.26-18.58,16.97-36.76,34.33-5.2-5.39-9.99-9.2-3.23-3.33-6.03-5.08,17-16.09,33.8-31.2,17.2-14.68,34.76-28.92ZM1130.06,800.97q10.58,3.52,21.59,8.28,12.09,5.67,25.17,12.26-21.02,14.92-41.54,30.2-21.33,16.35-42.15,33.06-11.64-8.45-22.74-15.7-10.49-6.07-19.69-11.38,19.24-14.82,39.53-29.63,19.37-13.59,39.83-27.08ZM1300.24,762.6q15.7,6.58,32,14.17,16.82,8.57,34.79,18-21.45,13.3-42.16,27.17-22,14.86-43.24,30.17-17.45-10.97-33.77-21.18-15.71-9.22-30.72-17.46,21.02-13.84,41.89-26.95,20.7-12.35,41.21-23.91ZM1490.71,749.58q18.59,9.32,38.15,19.54,20.45,11.13,40.27,23.04-18.87,10.97-38.55,22.8-19.69,12.71-39.94,26.23-20.92-13.53-40.59-26.26-19.67-11.84-38.53-22.83,20.54-11.95,40.28-23.02,19.58-10.21,38.92-19.52ZM1680.41,762.72q20.5,11.57,41.21,23.93,20.85,13.13,41.86,26.98-15.02,8.23-30.73,17.44-16.31,10.19-33.13,21.36-21.87-15.52-43.19-30.23-21.38-14.04-42.11-27.23,17.26-9.54,34.09-18.1,16.31-7.58,32-14.15ZM1851.28,801.54q19.75,13.16,39.79,27.15,19.62,14.43,39.49,29.7-9.86,4.86-19.73,11.34-11.1,7.24-23.37,15.27-20.81-16.71-41.47-32.73-21.16-15.66-42.18-30.58,13.09-6.58,25.18-12.25,11.71-4.41,22.3-7.91ZM1983.87,863.36q17.55,14.27,34.7,28.97,16.78,15.14,33.17,30.69-2.8,1.75-6.03,5.08-4.79,3.81-9.99,9.2-18.17-17.38-36.73-34.36-18.35-16.09-37.06-31.81,6.71-3.67,12.61-6.18,5.09-1.36,9.33-1.59ZM835.18,1029.35q.15,4.09,1.01,9.63,2.03,6.32,4.77,14.03-14.38,18.9-28.34,38.18-13.51,19.67-26.14,39.04-1.58-8.09-1.56-16.3.48-6.19,2.58-12.44,10.83-18.03,22.61-36.41,12.29-18.04,25.07-35.73ZM931.69,964.66q7.54,7.26,15.55,16.02,9,9.67,19.46,19.71-19.16,19.84-38,40.05-18.52,20.61-36.3,41.06-8.7-11.59-16.25-22.56-6.84-9.68-12.05-19.27,16.1-19.02,33.07-38.25,16.83-18.27,34.52-36.76ZM1084.04,915.48q13.39,10.77,27.82,22.29,15.4,12.31,31.15,25.76-21.6,19.39-43.73,39.69-21.68,20.49-42.97,41.19-14.8-14.69-28.83-28.49-13.24-12.91-25.64-24.91,20.37-19.65,40.58-38.54,20.59-18.63,41.61-36.98ZM1276.4,884.99q18.71,13.27,37.54,27.54,19.42,15.06,39.82,30.79-22.7,18.65-45.27,37.77-22.94,19.73-46.24,40.11-19.24-17.24-38.31-33.53-18.78-15.34-36.04-30.33,21.97-18.8,44.13-37.18,22.36-17.93,44.37-35.16ZM1490.61,874.59q21.43,15.65,42.96,32.02,22.1,17.08,44.1,34.78-21.5,16.95-42.81,34.67-21.98,18.34-44.36,37.28-22.35-18.98-44.29-37.34-21.82-17.69-43.31-34.65,22.57-17.75,44.71-34.79,21.56-16.33,43-31.96ZM1704.19,885.12q22,17.24,44.36,35.2,22.14,18.39,44.64,37.5-17.82,14.68-36.08,30.28-19.09,16.26-38.84,33.23-22.79-20.18-45.7-39.95-23.07-19.32-45.76-37.98,20.41-15.71,39.84-30.77,18.84-14.25,37.55-27.51ZM1896.53,915.72q21.02,18.36,41.6,37,20.72,19.37,40.56,38.56-12.41,11.99-25.65,24.89-14.05,13.81-28.86,28.47-21.28-20.7-42.94-41.21-21.6-19.94-43.7-39.71,16.3-13.08,31.16-25.74,14.44-11.52,27.83-22.27ZM2048.84,964.99q17.69,18.5,35,37.37,16.46,18.65,33.02,38.31-5.68,8.97-12.52,18.64-7.55,10.96-16.27,22.55-17.76-20.47-35.81-40.53-18.81-20.24-37.93-40.11,9.96-10.56,18.96-20.22,8.54-8.2,15.56-16.01ZM2145.31,1029.74q12.78,17.69,25.05,35.73,11.77,18.4,22.99,37.13,1.7,5.55,2.56,12.44-.36,7.51-1.58,16.3-12.6-19.39-26.09-39.08-13.93-19.3-28.73-38.87,3.21-7.07,4.78-14.03,1.32-4.88,1.01-9.62ZM774.79,1164.31q2.99,10.95,7.24,22.28,5.17,12.36,11.28,25.7c-12.6,19.51-13.35,20.67-24.11,38.43h-35.69c-.26-1.93-.55-4.22-.95-7.4q9.37-19.57,19.65-39.53,10.86-19.57,22.58-39.49ZM883.28,1119.81q10.19,13.89,21.23,28.75,12.22,15.17,24.95,31.7-18.43,21.75-36.67,44.19c-11.01,13.86-15.07,18.98-20.77,26.26h-25.14c-2.66-3.97-5.3-8.03-10.39-15.86q-9.6-15.62-18.24-30.5,15.32-21.14,31.34-42.39,16.33-20.71,33.69-42.17ZM1050.1,1086.26q16.06,16.79,33.31,33.82,17.66,18.06,36.08,36.7-22.41,22.89-44.11,45.45-21.46,22.74-42.69,45.81-17.27-19.64-33.89-38.48-16.05-17.89-30.96-35.69,20.01-22.15,40.11-43.76,20.98-22.13,42.15-43.85ZM1259.16,1065.47q20.56,18.87,41.71,38.31,21.46,20.11,43.65,40.63-23.72,22.4-47.27,45.02-23.65,22.96-47.1,46.08-21.69-21.22-42.52-42.29-20.45-20.4-40.49-40.08,22.87-22.38,45.85-44.48,22.86-21.64,46.17-43.18ZM1490.47,1058.51q22.87,20.49,46.06,41.47,23.24,21.42,46.77,43.27-22.67,21.45-45.83,43.29-23.57,22.22-47.14,44.82-23.82-22.62-47.08-44.9-23.11-21.88-46.1-43.27,23.54-21.83,46.79-43.23,23.61-21,46.53-41.45ZM1721.77,1065.84q22.85,21.32,46.09,43.25,22.95,22.13,45.77,44.55-20.07,19.66-40.55,40.03-21.14,20.77-42.85,41.97-23.44-23.13-46.75-45.91-23.86-22.83-47.21-45.1,21.85-20.65,43.71-40.55,20.77-19.62,41.78-38.25ZM1930.79,1086.97q21.13,21.75,41.7,43.43,20.44,22.13,40.41,44.31-15.24,17.28-31.01,35.65-16.66,18.82-34.2,37.97-20.95-22.65-42.67-45.83-21.69-22.57-43.74-45.11,18.46-18.61,36.14-36.65,16.89-17.43,33.38-33.76ZM2097.56,1120.78q16.96,20.85,33.61,42.22,15.98,21.27,31.28,42.43-8.66,14.87-18.29,30.47c-4.67,7.14-7.27,11.15-9.72,14.82h-26.41c-5.54-7.16-9.67-12.37-20.41-25.91q-17.93-21.87-36.65-44.21,13.08-15.96,24.97-31.69,11.41-14.26,21.63-28.14ZM2205.63,1164.73q11.71,19.92,22.86,40.24,9.97,19.22,19.33,38.8c-.28,2.9-.5,5.1-.7,6.95h-36.25c-10.19-16.65-11.07-18-23.49-37.33q6.13-13.32,11.32-25.68,3.93-12.04,6.93-22.99ZM769.19,1754.2c10.76,17.76,11.51,18.93,24.11,38.44q-6.11,13.32-11.29,25.69-4.24,11.33-7.23,22.29-11.72-19.91-22.58-39.5-10.28-19.95-19.65-39.52c.4-3.17.69-5.47.95-7.4h35.69ZM872.01,1754.2c5.68,7.29,9.75,12.4,20.77,26.27q18.24,22.43,36.67,44.18-12.73,16.53-24.96,31.7-11.02,14.86-21.22,28.75-17.35-21.45-33.69-42.17-16.02-21.24-31.34-42.38,8.64-14.88,18.25-30.5c5.08-7.83,7.72-11.88,10.38-15.86h25.14ZM1032.69,1756.88q21.24,23.07,42.69,45.81,21.7,22.56,44.11,45.44-18.43,18.66-36.08,36.72-17.25,17.02-33.31,33.81-21.17-21.72-42.15-43.84-20.1-21.62-40.11-43.77,14.91-17.8,30.97-35.69,16.62-18.85,33.88-38.48ZM1250.15,1769.42q23.45,23.12,47.1,46.08,23.55,22.63,47.27,45.03-22.19,20.52-43.66,40.62-21.14,19.44-41.7,38.32-23.31-21.55-46.17-43.18-22.98-22.09-45.85-44.49,20.04-19.68,40.49-40.09,20.83-21.06,42.52-42.28ZM1490.33,1773.58q23.57,22.6,47.14,44.82,23.16,21.83,45.83,43.29-23.53,21.84-46.77,43.27-23.19,20.97-46.06,41.47-23.33-20.48-46.53-41.45-23.25-21.41-46.79-43.24,22.99-21.39,46.1-43.27,23.26-22.28,47.08-44.88ZM1730.23,1769.29q21.71,21.19,42.86,41.97,20.48,20.36,40.54,40.02-22.83,22.42-45.77,44.55-23.24,21.94-46.09,43.25-21.01-18.62-41.78-38.25-21.86-19.9-43.71-40.55,23.35-22.27,47.21-45.11,23.31-22.77,46.75-45.89ZM1947.69,1756.61q17.54,19.16,34.2,37.97,15.77,18.37,31.01,35.65-19.97,22.18-40.41,44.32-20.57,21.68-41.7,43.42-16.49-16.33-33.38-33.76-17.68-18.04-36.14-36.65,22.05-22.53,43.74-45.11,21.72-23.19,42.67-45.83ZM2134.43,1754.2c2.45,3.68,5.06,7.67,9.72,14.82q9.63,15.6,18.29,30.47-15.29,21.16-31.28,42.45-16.65,21.37-33.61,42.21-10.23-13.88-21.63-28.14-11.89-15.73-24.97-31.68,18.72-22.34,36.65-44.22c10.74-13.54,14.87-18.75,20.41-25.91h26.41ZM2247.13,1754.2c.2,1.85.42,4.05.7,6.95q-9.36,19.59-19.33,38.81-11.15,20.32-22.86,40.23-3-10.95-6.93-22.99-5.19-12.36-11.32-25.67c12.43-19.33,13.3-20.67,23.51-37.33h36.24ZM786.48,1874.69q12.63,19.38,26.14,39.04,13.96,19.29,28.34,38.19-2.75,7.71-4.77,14.04-.86,5.54-1.01,9.62-12.78-17.68-25.07-35.72-11.78-18.39-22.61-36.41-2.1-6.24-2.58-12.44-.02-8.21,1.56-16.31ZM892.4,1923.42q17.78,20.46,36.3,41.06,18.84,20.21,38,40.05-10.47,10.05-19.46,19.71-8,8.76-15.55,16.03-17.69-18.48-34.52-36.76-16.97-19.22-33.07-38.25,5.21-9.59,12.05-19.27,7.54-10.97,16.25-22.56ZM1056.31,1960.52q21.29,20.69,42.97,41.19,22.13,20.3,43.73,39.7-15.74,13.44-31.15,25.75-14.43,11.52-27.82,22.29-21.02-18.35-41.61-36.98-20.21-18.88-40.58-38.54,12.4-12,25.64-24.91,14.02-13.81,28.83-28.5ZM1262.24,1983.73q23.31,20.36,46.24,40.11,22.56,19.11,45.27,37.77-20.39,15.72-39.82,30.78-18.83,14.27-37.54,27.53-22-17.22-44.37-35.17-22.16-18.38-44.13-37.17,17.26-15,36.04-30.35,19.07-16.29,38.31-33.52ZM1490.5,1991.59q22.38,18.94,44.36,37.28,21.3,17.72,42.81,34.67-22,17.69-44.1,34.77-21.53,16.38-42.96,32.02-21.44-15.62-43-31.96-22.14-17.03-44.71-34.79,21.49-16.97,43.31-34.64,21.94-18.37,44.29-37.35ZM1718.27,1983.6q19.75,16.97,38.84,33.24,18.26,15.59,36.08,30.28-22.51,19.1-44.64,37.49-22.37,17.94-44.36,35.2-18.71-13.27-37.55-27.52-19.43-15.04-39.84-30.76,22.7-18.66,45.76-37.98,22.91-19.77,45.7-39.95ZM1924.18,1960.27q14.81,14.68,28.86,28.48,13.24,12.9,25.65,24.89-19.84,19.19-40.56,38.56-20.58,18.64-41.6,37-13.39-10.75-27.83-22.27-14.86-12.66-31.16-25.75,22.1-19.77,43.7-39.71,21.65-20.51,42.94-41.21ZM2088.07,1923.06q8.71,11.6,16.27,22.55,6.84,9.68,12.52,18.64-16.55,19.65-33.02,38.31-17.31,18.87-35,37.37-7.02-7.82-15.56-16-9-9.68-18.96-20.23,19.13-19.86,37.93-40.11,18.05-20.06,35.81-40.53ZM2194.34,1873.57q1.22,8.79,1.58,16.31-.86,6.9-2.56,12.44-11.22,18.73-22.99,37.12-12.27,18.04-25.05,35.74.32-4.75-1.01-9.63-1.58-6.96-4.78-14.02,14.8-19.57,28.73-38.88,13.49-19.68,26.09-39.08ZM944.84,2067.95q18.19,17.36,36.76,34.34,18.35,16.07,37.7,32.25-7.35,3.2-13.25,5.71-5.08,1.38-8.68,2.09-17.56-14.24-34.76-28.91-16.79-15.12-33.8-31.2,2.8-1.75,6.03-5.08,4.78-3.81,9.99-9.21ZM1093.13,2120.16q20.82,16.71,42.15,33.06,20.51,15.28,41.54,30.19-13.08,6.59-25.17,12.26-11.01,4.76-21.59,8.28-20.46-13.49-39.83-27.08-20.3-14.81-39.53-29.63,9.21-5.31,19.69-11.38,11.1-7.25,22.74-15.7ZM1281.63,2152.83q21.24,15.3,43.24,30.16,20.71,13.87,42.16,27.16-17.97,9.43-34.79,18-16.3,7.6-32,14.17-20.51-11.56-41.21-23.91-20.87-13.1-41.89-26.95,15.01-8.23,30.72-17.45,16.31-10.2,33.77-21.17ZM1490.64,2163.73q20.25,13.51,39.94,26.23,19.67,11.82,38.55,22.79-19.82,11.91-40.27,23.05-19.56,10.21-38.15,19.54-19.34-9.31-38.92-19.53-19.74-11.06-40.28-23.01,18.86-10.97,38.53-22.82,19.67-12.72,40.59-26.25ZM1699.62,2152.49q16.82,11.18,33.13,21.36,15.71,9.22,30.73,17.45-21.01,13.86-41.86,26.97-20.7,12.37-41.21,23.93-15.69-6.57-32-14.14-16.83-8.57-34.09-18.11,20.73-13.18,42.11-27.24,21.32-14.69,43.19-30.23ZM1887.45,2119.92q12.28,8.04,23.37,15.28,9.86,6.48,19.73,11.33-19.87,15.27-39.49,29.7-20.04,13.99-39.79,27.15-10.59-3.5-22.3-7.9-12.09-5.67-25.18-12.25,21.02-14.92,42.18-30.58,20.66-16.02,41.47-32.73ZM2035.72,2067.63q5.2,5.39,9.99,9.2,3.23,3.33,6.03,5.08-16.39,15.54-33.17,30.69-17.15,14.7-34.7,28.97-4.24-.22-9.33-1.59-5.9-2.52-12.61-6.18,18.71-15.72,37.06-31.81,18.56-16.99,36.73-34.35ZM1306.1,2260.29q19.55,9.22,39.51,17.73,18.78,7.44,37.89,14.1-14.86,2.21-28.87,3.39-13.93.02-26.11-.81-17.98-4.78-36.52-10.53-19.05-6.7-38.58-14.36,11.96-.84,24.9-2.67,13.85-2.82,27.78-6.85ZM1490.72,2273.82q17.91,6.81,35.32,12.66,16.85,4.86,33.06,8.74-18.02,5.1-35.45,9.23-16.79,3.14-32.9,5.28-16.91-2.14-33.71-5.25-17.43-4.11-34.65-9.14,16.2-3.9,33.03-8.78,17.41-5.89,35.3-12.72ZM1674.56,2260.17q14.7,3.83,27.8,6.85,12.94,1.83,24.91,2.64-18.75,7.47-37.8,14.2-18.52,5.78-37.29,10.76-12.18.83-25.32.68-14.01-1.16-28.87-3.35,18.32-6.55,37.86-14.16,19.18-8.37,38.72-17.63ZM2129.6,1009.21q-.22,4.24-1.6,9.32-2.52,5.91-5.72,13.25-16.17-19.36-32.24-37.71-16.97-18.58-34.33-36.76,5.4-5.2,9.21-9.98,3.34-3.22,5.08-6.03,15.54,16.4,31.19,33.8,14.68,17.19,28.42,34.12ZM2191.33,1141.85q-3.52,10.59-7.94,22.3-5.67,12.08-12.26,25.17-14.91-21.02-30.19-41.55-16.36-21.32-33.05-42.14,8.45-11.65,15.29-23.37,6.48-9.86,11.79-19.07,14.82,19.24,29.63,39.54,13.59,19.37,26.72,39.13ZM2167.34,1250.72c4.14-7.09,5.72-9.99,11.82-21.08,6.95,10.57,10.41,15.81,13.79,21.08h-25.62ZM2192.97,1754.2c-3.39,5.27-6.85,10.52-13.81,21.09-6.1-11.1-7.68-13.99-11.82-21.09h25.63ZM2191.33,1863.08q-13.14,19.76-26.72,39.14-14.81,20.3-29.63,39.53-5.31-9.21-11.79-19.06-6.84-11.74-15.29-23.37,16.69-20.83,33.05-42.15,15.28-20.53,30.19-41.55,6.59,13.08,12.26,25.16,4.42,11.71,7.94,22.3ZM2129.6,1995.71q-13.74,16.93-28.42,34.12-15.65,17.4-31.19,33.81-1.74-2.81-5.08-6.03-3.81-4.78-9.21-9.98,17.36-18.19,34.33-36.76,16.07-18.35,32.24-37.72,3.21,7.35,5.72,13.25,1.38,5.09,1.6,9.32ZM1963.35,847.63q-4.08.15-9.62,1-6.32,2.03-14.03,4.77-18.9-14.39-38.85-28.76-18.98-13.1-39.06-26.11,8.8-1.21,16.31-1.56,6.89.87,12.44,2.56,18.72,11.24,37.11,23.02,18.03,12.3,35.71,25.08ZM2028.03,944.15q-7.27,7.54-16.03,15.54-9.68,8.99-20.24,18.95-19.85-19.14-39.51-37.5-20.61-18.53-41.06-36.31,11.6-8.7,22.56-16.25,9.69-6.83,18.66-12.51,19.64,16.58,38.27,33.05,18.86,17.33,37.35,35.03ZM2077.18,1096.51q-10.77,13.38-22.3,27.81-12.31,15.4-25.76,31.14-19.76-22.12-39.68-43.74-20.48-21.67-41.18-42.97,14.69-14.79,28.51-28.83,12.91-13.23,24.92-25.63,19.64,20.38,38.53,40.59,18.62,20.6,36.97,41.62ZM1992.21,1250.72c3.18-3.6,6.94-7.83,12.74-14.33q15.35-18.77,30.04-36.57,19.09,22.51,37.47,44.67l4.99,6.23h-85.25ZM2077.46,1754.2l-4.99,6.24q-18.38,22.15-37.47,44.67-14.69-17.8-30.04-36.57c-5.8-6.52-9.57-10.75-12.74-14.34h85.25ZM2077.18,1908.42q-18.35,21.03-36.97,41.61-18.89,20.21-38.53,40.59-12.01-12.39-24.92-25.63-13.81-14.02-28.51-28.83,20.69-21.3,41.18-42.97,19.92-21.61,39.68-43.74,13.46,15.74,25.76,31.14,11.53,14.43,22.3,27.82ZM2028.03,2060.78q-18.49,17.69-37.35,35.03-18.63,16.47-38.27,33.04-8.97-5.68-18.66-12.51-10.96-7.54-22.56-16.25,20.45-17.79,41.06-36.31,19.66-18.37,39.51-37.51,10.56,9.96,20.24,18.96,8.76,7.99,16.03,15.55ZM1963.35,2157.3q-17.68,12.79-35.71,25.08-18.39,11.78-37.11,23.02-5.55,1.69-12.44,2.56-7.51-.35-16.31-1.58,20.08-13.01,39.06-26.1,19.96-14.39,38.85-28.77,7.72,2.76,14.03,4.77,5.54.85,9.62,1.01ZM1828.41,787.2q-10.95,2.99-22.29,7.23-13.07,4.87-26.38,10.99-20.77-13.38-41.33-25.99-20.34-11.83-40.42-22.86,13.46-4.61,26.81-8.01,13.18-2.17,24.6-3.6,19.58,9.38,39.52,19.66,19.58,10.87,39.49,22.59ZM1872.89,895.7q-13.91,10.2-28.77,21.23-15.16,12.21-31.7,24.95-21.74-18.45-44.17-36.69-21.98-17.46-44.11-34.4,17.44-11.31,33.71-21.88,15.62-9.6,29.83-18.54,21.15,15.32,42.41,31.32,21.36,16.67,42.81,34.03ZM1906.4,1062.53q-16.79,16.05-34.23,32.93-18.05,17.67-36.67,36.11-22.52-22.06-45.07-43.77-23.18-21.74-45.79-42.71,19.16-17.52,37.99-34.16,18.38-15.77,35.68-30.99,22.16,19.99,44.27,40.44,22.11,20.98,43.83,42.16ZM1768.7,1250.72c10.71-10.91,14.38-14.54,30.71-30.68q20.1-20.77,40.1-40.48,22.08,22.5,44.19,45.47c12.48,13.24,17.86,18.94,24.14,25.69h-139.13ZM1907.84,1754.2c-6.28,6.77-11.66,12.46-24.14,25.71q-22.11,22.97-44.19,45.46-20-19.71-40.1-40.49c-16.33-16.14-20-19.76-30.71-30.68h139.13ZM1906.4,1942.39q-21.72,21.17-43.83,42.16-22.11,20.46-44.27,40.45-17.3-15.24-35.68-31-18.83-16.64-37.99-34.16,23.05-21.26,45.79-42.72,22.55-21.7,45.07-43.77,18.62,18.44,36.67,36.11,17.44,16.88,34.23,32.93ZM1872.89,2109.22q-21.45,17.35-42.81,34.04-21.26,15.98-42.41,31.31-14.21-8.93-29.83-18.55-16.27-10.57-33.71-21.88,22.13-16.94,44.11-34.4,22.43-18.25,44.17-36.69,16.54,12.72,31.7,24.94,14.86,11.04,28.77,21.23ZM1828.41,2217.73q-19.91,11.71-39.49,22.6-19.94,10.27-39.52,19.65-11.42-1.43-24.6-3.6-13.35-3.39-26.81-8.01,20.08-11.02,40.42-22.86,20.56-12.61,41.33-25.99,13.31,6.13,26.38,10.99,11.34,4.23,22.29,7.23ZM1657.32,750.49q-15.42,6.18-32.18,13.21-17.27,8.02-34.96,17.04-19.99-11.45-39.85-22.08-19.65-9.75-39.04-18.6,18.71-7.28,35.4-13.66,16.92-5.36,33.22-9.73,18.96,7.13,38.34,15.19,19.75,8.95,39.06,18.63ZM1679.15,866.16q-18.65,12.91-38.03,26.64-19.33,14.7-39.66,30.07-22.46-17.38-44.32-34.03-21.75-15.96-42.64-31.16,20.34-13.96,40.18-27.11,19.18-12.32,38.28-23.72,21.09,13.69,42.75,28.21,21.5,15.16,43.44,31.1ZM1695.2,1041.71q-20.82,18.5-42.06,37.66-21.8,19.73-43.79,40.08-23.72-21.67-47.11-42.84-22.91-20.66-46.05-40.87,22.58-19.26,44.43-37.95,21.81-18,42.79-35.38,22.95,19.09,45.56,38.59,23.29,20.19,46.23,40.71ZM1524.49,1250.72c16.77-16.18,19.11-18.42,39.94-38.33q23.19-22.04,45.92-43.69,23.87,22.67,47.43,45.49c19.86,19.36,23.2,22.61,37.28,36.54h-170.57ZM1695.06,1754.2c-14.08,13.94-17.42,17.19-37.28,36.54q-23.56,22.81-47.43,45.48-22.74-21.65-45.92-43.68c-20.82-19.9-23.16-22.16-39.94-38.34h170.57ZM1695.2,1963.21q-22.95,20.52-46.23,40.7-22.62,19.51-45.56,38.58-20.99-17.37-42.79-35.36-21.84-18.7-44.43-37.97,23.14-20.2,46.05-40.86,23.39-21.17,47.11-42.85,22,20.36,43.79,40.09,21.24,19.16,42.06,37.66ZM1679.15,2138.77q-21.94,15.93-43.44,31.09-21.65,14.52-42.75,28.2-19.1-11.39-38.28-23.71-19.84-13.14-40.18-27.11,20.89-15.2,42.64-31.16,21.85-16.64,44.32-34.03,20.33,15.37,39.66,30.06,19.38,13.73,38.03,26.65ZM1657.32,2254.43q-19.31,9.67-39.06,18.62-19.38,8.06-38.34,15.19-16.3-4.37-33.22-9.72-16.69-6.39-35.4-13.66,19.39-8.86,39.04-18.61,19.86-10.62,39.85-22.07,17.69,9.01,34.96,17.03,16.76,7.03,32.18,13.21ZM1469.36,740.05q-19.38,8.84-38.29,18.52-19.87,10.59-40.62,22.1-17.68-9.01-34.93-17.06-16.02-7.19-32.16-13.22,20.08-9.81,39.84-18.74,18.61-7.91,37.58-15.03,16.29,4.37,33.2,9.74,17.46,6.35,35.38,13.68ZM1466.75,857.63q-21.55,15.21-43.31,31.17-21.86,16.63-43.76,33.89-20.3-15.41-40.22-29.98-19.37-13.75-37.39-26.85,21.31-15.73,43.5-31.03,21-14.36,42.09-28.03,19.1,11.41,38.28,23.74,20.48,13.12,40.81,27.1ZM1464.31,1035.74q-22.72,20.14-46.08,40.84-23.4,21.15-46.75,42.69-22.37-20.25-43.74-40.15-21.65-19.02-41.99-37.72,22.98-20.49,45.79-40.48,23.14-19.63,45.59-38.56,21.5,17.3,42.77,35.4,22.31,18.66,44.4,37.98ZM1285.22,1250.72c14.42-14.2,17.65-17.36,37.39-36.64q23.9-22.95,47.46-45.46,22.73,21.67,45.91,43.72c20.81,19.93,23.14,22.16,39.93,38.38h-170.68ZM1455.9,1754.2c-16.77,16.21-19.11,18.46-39.93,38.38q-23.18,22.05-45.91,43.71-23.56-22.52-47.46-45.47c-19.74-19.27-22.97-22.42-37.39-36.63h170.68ZM1464.31,1969.19q-22.09,19.33-44.4,37.98-21.27,18.1-42.77,35.39-22.44-18.92-45.59-38.55-22.81-19.99-45.79-40.47,20.34-18.72,41.99-37.73,21.37-19.9,43.74-40.15,23.34,21.53,46.75,42.7,23.36,20.69,46.08,40.83ZM1466.75,2147.29q-20.33,13.99-40.81,27.11-19.17,12.33-38.28,23.74-21.09-13.67-42.09-28.03-22.18-15.3-43.5-31.04,18.02-13.11,37.39-26.85,19.92-14.57,40.22-29.98,21.9,17.25,43.76,33.89,21.76,15.94,43.31,31.16ZM1469.36,2264.87q-17.92,7.33-35.38,13.68-16.92,5.38-33.2,9.74-18.97-7.12-37.58-15.03-19.76-8.92-39.84-18.73,16.15-6.04,32.16-13.23,17.25-8.03,34.93-17.06,20.74,11.52,40.62,22.09,18.92,9.7,38.29,18.52ZM1283.42,756.23q-20.83,11.23-41.17,23.05-20.57,12.6-41.34,25.97-13.31-6.13-25.67-11.32-12.04-3.93-22.28-7.26,19.2-11.38,39.52-22.53,19.21-9.97,38.8-19.34,12.17,1.19,24.59,3.61,13.35,3.41,27.56,7.82ZM1256.46,870.64q-22.14,16.93-44.12,34.37-21.87,17.94-44.21,36.67-15.96-13.09-31.69-24.97-14.27-11.4-28.15-21.62,20.85-16.96,42.21-33.62,21.27-15.98,42.43-31.29,14.87,8.66,30.48,18.29,16.25,10.6,33.04,22.17ZM1236.32,1044.69q-23.09,21.21-45.86,42.64-22.98,21.99-45.51,44.04-18.61-18.45-36.65-36.13-17.43-16.88-33.77-33.36,21.75-21.14,43.43-41.72,22.11-20.44,44.29-40.41,17.28,15.23,35.65,31.01,18.83,16.65,38.43,33.94ZM1072.27,1250.72c6.38-6.81,11.73-12.48,24.42-25.93q22.11-22.95,44.54-45.78,19.66,20.06,40.03,40.54c16.25,16.54,19.78,20.14,30.82,31.17h-139.81ZM1212.08,1754.2c-11.04,11.04-14.57,14.65-30.83,31.18q-20.36,20.47-40.03,40.54-22.42-22.83-44.54-45.79c-12.7-13.44-18.04-19.11-24.42-25.92h139.81ZM1236.32,1960.24q-19.6,17.3-38.43,33.94-18.37,15.79-35.65,31.02-22.18-19.98-44.29-40.41-21.68-20.58-43.43-41.73,16.35-16.47,33.77-33.36,18.04-17.68,36.65-36.13,22.53,22.04,45.51,44.04,22.77,21.43,45.86,42.63ZM1256.46,2134.28q-16.79,11.56-33.04,22.17-15.61,9.62-30.48,18.29-21.16-15.3-42.43-31.29-21.36-16.66-42.21-33.63,13.89-10.2,28.15-21.61,15.73-11.89,31.69-24.97,22.33,18.73,44.21,36.66,21.98,17.45,44.12,34.38ZM1283.42,2248.7q-14.21,4.41-27.56,7.83-12.41,2.41-24.59,3.59-19.59-9.35-38.8-19.33-20.32-11.15-39.52-22.53,10.24-3.33,22.28-7.25,12.36-5.19,25.67-11.32,20.77,13.36,41.34,25.97,20.34,11.82,41.17,23.04ZM1118.85,798.31q-19.38,12.61-39.07,26.09-19.3,13.93-38.87,28.74-7.06-3.21-13.38-5.25-5.54-.86-10.28-.54,18.36-13.23,36.41-25.5,17.71-11.34,36.44-22.56,5.55-1.69,12.44-2.56,7.51.36,16.3,1.57ZM1069.39,904.58q-20.46,17.77-40.52,35.83-20.24,18.81-40.1,37.94-10.56-9.97-19.69-19.49-8.75-8.01-16.55-15.03,18.49-17.69,37.35-35.01,19.27-16.94,38.31-33.02,8.97,5.69,19.26,12.08,10.34,7.99,21.94,16.7ZM1032.22,1068.48q-20.7,21.29-41.21,42.95-19.92,21.6-39.7,43.71-13.09-16.3-25.75-31.15-11.52-14.44-22.28-27.83,18.36-21.01,36.99-41.6,19.37-20.73,39.04-41.08,11.99,12.42,24.88,25.68,13.33,14.52,28.01,29.32ZM902.63,1250.72l5.28-6.58q18.39-22.14,37.5-44.65,14.68,17.81,30.28,36.07c5.93,6.96,9.7,11.39,12.92,15.15h-85.97ZM988.61,1754.2l-12.92,15.15q-15.6,18.26-30.28,36.08-19.1-22.51-37.5-44.65l-5.28-6.58h85.97ZM1032.22,1936.44q-14.68,14.82-28.01,29.34-12.9,13.25-24.88,25.66-19.67-20.34-39.04-41.08-18.64-20.58-36.99-41.6,10.76-13.38,22.28-27.82,12.67-14.86,25.75-31.15,19.77,22.09,39.7,43.7,20.5,21.65,41.21,42.94ZM1069.39,2100.34q-11.59,8.7-21.94,16.71-10.29,6.39-19.26,12.06-19.04-16.07-38.31-33.02-18.86-17.32-37.35-35.01,7.8-7.01,16.55-15.02,9.12-9.52,19.69-19.49,19.86,19.11,40.1,37.94,20.05,18.04,40.52,35.82ZM1118.85,2206.61q-8.79,1.22-16.3,1.57-6.89-.85-12.44-2.55-18.73-11.22-36.44-22.56-18.05-12.26-36.41-25.49,4.74.31,10.28-.55,6.32-2.04,13.38-5.25,19.56,14.81,38.87,28.75,19.69,13.48,39.07,26.09ZM924.83,956.96q-17.37,18.18-33.84,36.15-16.6,18.94-32.31,37.66-3.67-6.71-6.2-12.62-1.36-5.08-1.59-9.32,14.27-17.54,28.97-34.71,15.14-16.78,30.69-33.18,2.3,2.24,5.08,6.04,4.36,4.22,9.19,9.98ZM872.57,1105.25q-16.71,20.81-32.71,41.47-15.66,21.16-30.58,42.18-6.59-13.09-11.91-25.86-4.75-11.02-8.25-21.61,13.15-19.75,27.14-39.78,14.43-19.62,29.7-39.49,5.29,9.22,11.34,19.72,7.25,11.1,15.27,23.37ZM786.94,1250.72c3.65-5.66,7.09-10.88,14.56-22.18,6.37,11.65,7.81,14.27,12.41,22.18h-26.97ZM813.91,1754.2c-4.61,7.93-6.04,10.53-12.41,22.18-7.47-11.3-10.91-16.51-14.56-22.18h26.97ZM872.57,1899.67q-8.03,12.28-15.27,23.39-6.05,10.5-11.34,19.71-15.27-19.86-29.7-39.49-13.99-20.02-27.14-39.78,3.5-10.59,8.25-21.6,5.32-12.79,11.91-25.88,14.92,21.02,30.58,42.19,16.01,20.66,32.71,41.47ZM924.83,2047.96q-4.84,5.77-9.19,9.99-2.78,3.79-5.08,6.02-15.55-16.4-30.69-33.17-14.7-17.17-28.97-34.72.23-4.24,1.6-9.32,2.52-5.91,6.18-12.62,15.71,18.71,32.31,37.67,16.47,17.95,33.84,36.14ZM826.27,1965.05h.01M1355.42,704.58c34.09-5.72,68.91-9.28,104.31-10.6,4.53-.09,5.61-.08,12.43.02q-16.12,1.62-32.94,4.25-17.48,3.62-34.77,8.15-14.74-1.72-29.45-2.33-13.03.29-25.91,1.72c3.17-.59,3.19-.59,6.34-1.2ZM1220.08,739.58c29.77-10.54,60.33-19.4,91.6-26.44q-16.38,4.18-33.48,9.11-18.43,6.1-37.35,13.16-9.79,1.28-19.19,3.78-.77.26-1.58.38ZM1117.73,784c25.06-13.01,50.87-24.77,77.38-35.16,2.29-.61,2.32-.62,5.37-1.61q8.8-1.87,18.75-2.8-19.05,8.75-38.52,18.41-19.86,10.57-39.33,21.72-9.25-.67-17.24-.44-6.71,1.08-12.81,3.39,2.86-1.52,6.39-3.49v-.02ZM1013.3,848.79c4.97-3.62,9.97-7.2,15.02-10.72-7.79,5.51-7.84,5.54-15.01,10.73h0ZM927.36,921.19c20.91-20.26,42.91-39.4,65.9-57.32.01.01.07-.02.68-.44q-17.03,13.67-33.69,27.8-16.87,15.1-32.76,30.1l-.13-.14ZM852.21,1004.73c17.96-22.97,37.14-44.93,57.42-65.81l.13.12q-15.57,16.45-30.15,32.71-14.15,16.64-27.84,33.66s-.03-.03.44-.69ZM736.92,1206.34c10.43-26.5,22.26-52.29,35.31-77.33,1.56-2.74,1.59-2.78,3.46-6.32q-2.31,6.1-3.76,13.52-.22,7.99.79,16.52-11.18,19.47-21.78,39.31-9.69,19.45-18.47,38.5.94-9.96,2.82-18.75,1-3.08,1.64-5.44h-.01ZM721,1250.72c2.05-6.23,4.15-12.43,6.34-18.59q.15.05-.11.82c-2.33,8.7-2.5,9.35-3.74,17.77h-2.49ZM727.34,1772.79c-2.18-6.15-4.29-12.35-6.34-18.59h2.49c1.25,8.43,1.41,9.07,3.74,17.78q.26.77.11.81ZM772.23,1875.92c-13.06-25.05-24.87-50.84-35.31-77.33h.01q-.65-2.35-1.64-5.43-1.88-8.8-2.82-18.76,8.78,19.05,18.47,38.49,10.6,19.85,21.78,39.31-1.01,8.53-.79,16.52,1.45,7.42,3.76,13.53c-1.87-3.55-1.89-3.59-3.46-6.33ZM837.09,1980.16c-3.66-4.99-7.26-10.03-10.8-15.11q5.13,7.25,10.34,14.47l.46.63ZM909.63,2066.01c-20.29-20.89-39.47-42.85-57.42-65.82h0q-.47-.66-.44-.68,13.69,17.01,27.84,33.65,14.58,16.26,30.15,32.71l-.13.13ZM993.27,2141.05c-22.99-17.91-45-37.06-65.9-57.31l.13-.14q15.88,15,32.76,30.11,16.66,14.12,33.69,27.79c-.61-.42-.67-.44-.68-.44ZM1028.32,2166.86c-5.05-3.53-10.05-7.09-15.02-10.73h0c7.17,5.18,7.22,5.21,15.01,10.73ZM1195.11,2256.09c-26.5-10.4-52.32-22.16-77.38-35.16v-.02q-3.55-1.97-6.41-3.48,6.1,2.3,12.81,3.37,7.99.23,17.24-.44,19.48,11.14,39.33,21.72,19.47,9.67,38.52,18.41-9.95-.92-18.75-2.8c-3.04-.99-3.08-.99-5.37-1.6ZM1311.68,2291.78c-31.25-7.04-61.83-15.9-91.6-26.43q.81.11,1.58.37,9.4,2.5,19.19,3.79,18.93,7.05,37.35,13.16,17.08,4.93,33.48,9.11ZM1459.73,2310.94c-35.39-1.31-70.22-4.88-104.31-10.6-3.15-.61-3.17-.61-6.34-1.19q12.89,1.43,25.91,1.72,14.71-.61,29.45-2.34,17.29,4.53,34.77,8.15,16.83,2.63,32.94,4.26c-6.82.1-7.89.1-12.43.01ZM1625.24,2300.27c-33.87,5.69-68.48,9.26-103.64,10.62-5.14.13-6.16.11-13.06.02q16.12-1.64,32.94-4.27,17.48-3.63,35.57-8.25,14.74,1.71,28.65,2.41,13.83-.44,26.7-1.88-3.97.72-7.16,1.36ZM1760.6,2265.18c-29.8,10.57-60.4,19.45-91.69,26.52q16.47-4.22,33.56-9.16,18.42-6.11,37.35-13.18,10.54-1.55,19.95-4.06s0,.01.82-.11ZM1863.74,2220.27c-25.05,13.06-50.85,24.9-77.35,35.33h0q-3.11.93-5.44,1.63-9.54,2.17-18.75,2.84,19.05-8.79,38.5-18.47,19.1-10.29,38.58-21.44,9.25.66,17.24.43,7.42-1.46,13.52-3.78c-3.54,1.88-3.58,1.91-6.3,3.46ZM1967.43,2155.76c-4.83,3.55-9.69,7.03-14.61,10.44h.01q7.26-5.15,14.46-10.36s0,0,.13-.09ZM2053.75,2082.87c-20.88,20.27-42.82,39.45-65.77,57.39h0q-.65.48-.69.44,17.02-13.7,33.65-27.85,16.26-14.58,32.13-29.58c.44-.26.6-.37.68-.39ZM2128.33,1999.79c-17.84,22.84-36.86,44.69-56.99,65.46.13-.18.11-.2.02-.28q14.99-15.88,29.56-32.15,14.14-16.65,27.83-33.68s.03.03-.4.62h0l-.02.03ZM2154.19,1964.7c-3.38,4.84-6.82,9.66-10.31,14.43h0q5.2-7.2,10.31-14.43ZM2243.47,1798.12c-10.41,26.49-22.19,52.28-35.22,77.31q-1.6,2.8-3.49,6.37,2.68-6.81,3.75-13.51.22-7.99-.44-17.24,11.13-19.5,21.4-38.61,9.68-19.45,18.71-39.26-.92,9.96-3.08,19.51-.71,2.33-1.64,5.43ZM2259.22,1754.2c-1.99,6.09-4.05,12.13-6.18,18.14q.12-.82.38-1.59c2.04-7.84,2.22-8.56,3.4-16.55h2.41ZM2253.04,1232.59c2.13,6.01,4.19,12.06,6.17,18.13h-2.4c-1.17-7.99-1.36-8.7-3.4-16.55q-.26-.77-.38-1.58ZM2208.25,1129.49c13.03,25.03,24.82,50.82,35.22,77.3q.93,3.1,1.64,5.44,2.16,9.55,3.08,19.51-9.03-19.8-18.71-39.26-10.27-19.11-21.4-38.6.65-9.24.44-17.24-1.07-6.7-3.75-13.52,1.89,3.57,3.49,6.38ZM2143.88,1025.78c3.49,4.78,6.93,9.59,10.31,14.45q-5.1-7.22-10.31-14.44h0ZM2071.34,939.67c20.13,20.78,39.16,42.62,56.99,65.47l.02.03h0c.43.59.43.6.4.63q-13.69-17.02-27.83-33.68-14.57-16.26-29.56-32.15c.09-.08.11-.1-.02-.3ZM1987.97,864.66c22.96,17.94,44.9,37.12,65.77,57.4-.08-.03-.24-.13-.68-.4q-15.87-15.01-32.13-29.59-16.63-14.15-33.65-27.85s.04-.04.69.44ZM1952.82,838.72c4.92,3.42,9.78,6.91,14.61,10.44q-.12-.08-.13-.08-7.2-5.22-14.46-10.36h-.01ZM1786.38,749.33c26.5,10.43,52.31,22.27,77.35,35.33,2.72,1.55,2.76,1.57,6.3,3.45q-6.1-2.31-13.52-3.77-7.99-.22-17.24.43-19.48-11.16-38.58-21.44-19.45-9.7-38.5-18.48,9.21.67,18.75,2.83,2.33.71,5.44,1.64ZM1668.92,713.23c31.29,7.05,61.89,15.95,91.69,26.52l-.82-.12q-9.4-2.51-19.95-4.06-18.94-7.07-37.35-13.18-17.1-4.94-33.56-9.16ZM1521.6,694.03c35.18,1.34,69.77,4.93,103.64,10.63q3.19.62,7.16,1.35-12.87-1.44-26.7-1.87-13.92.7-28.65,2.4-18.08-4.62-35.57-8.25-16.83-2.64-32.94-4.27c6.9-.08,7.92-.1,13.06.02Z"/></clipPath></defs><path class="cls-6" d="M1328.52,710.21q12.18-.83,26.11-.79,14.01,1.18,28.87,3.38-19.11,6.65-37.89,14.1-19.96,8.51-39.51,17.75-13.94-4.03-27.78-6.86-12.94-1.83-24.9-2.66,19.53-7.66,38.58-14.37,18.54-5.75,36.52-10.54M1490.75,695.2q16.1,2.14,32.9,5.28,17.43,4.12,35.45,9.23-16.21,3.87-33.06,8.74-17.41,5.85-35.32,12.66-17.89-6.84-35.3-12.71-16.82-4.89-33.03-8.79,17.22-5.02,34.65-9.14,16.79-3.12,33.71-5.26ZM1652.18,710.3q18.76,4.98,37.29,10.76,19.05,6.74,37.8,14.2-11.97.83-24.91,2.64-13.09,3.03-27.8,6.85-19.54-9.24-38.72-17.62-19.54-7.61-37.86-14.17,14.86-2.17,28.87-3.34,13.14-.15,25.32.68ZM997.37,862.58q3.6.72,8.68,2.09,5.9,2.52,13.25,5.72-19.36,16.17-37.7,32.26-18.58,16.97-36.76,34.33-5.2-5.39-9.99-9.2-3.23-3.33-6.03-5.08,17-16.09,33.8-31.2,17.2-14.68,34.76-28.92ZM1130.06,800.97q10.58,3.52,21.59,8.28,12.09,5.67,25.17,12.26-21.02,14.92-41.54,30.2-21.33,16.35-42.15,33.06-11.64-8.45-22.74-15.7-10.49-6.07-19.69-11.38,19.24-14.82,39.53-29.63,19.37-13.59,39.83-27.08ZM1300.24,762.6q15.7,6.58,32,14.17,16.82,8.57,34.79,18-21.45,13.3-42.16,27.17-22,14.86-43.24,30.17-17.45-10.97-33.77-21.18-15.71-9.22-30.72-17.46,21.02-13.84,41.89-26.95,20.7-12.35,41.21-23.91ZM1490.71,749.58q18.59,9.32,38.15,19.54,20.45,11.13,40.27,23.04-18.87,10.97-38.55,22.8-19.69,12.71-39.94,26.23-20.92-13.53-40.59-26.26-19.67-11.84-38.53-22.83,20.54-11.95,40.28-23.02,19.58-10.21,38.92-19.52ZM1680.41,762.72q20.5,11.57,41.21,23.93,20.85,13.13,41.86,26.98-15.02,8.23-30.73,17.44-16.31,10.19-33.13,21.36-21.87-15.52-43.19-30.23-21.38-14.04-42.11-27.23,17.26-9.54,34.09-18.1,16.31-7.58,32-14.15ZM1851.28,801.54q19.75,13.16,39.79,27.15,19.62,14.43,39.49,29.7-9.86,4.86-19.73,11.34-11.1,7.24-23.37,15.27-20.81-16.71-41.47-32.73-21.16-15.66-42.18-30.58,13.09-6.58,25.18-12.25,11.71-4.41,22.3-7.91ZM1983.87,863.36q17.55,14.27,34.7,28.97,16.78,15.14,33.17,30.69-2.8,1.75-6.03,5.08-4.79,3.81-9.99,9.2-18.17-17.38-36.73-34.36-18.35-16.09-37.06-31.81,6.71-3.67,12.61-6.18,5.09-1.36,9.33-1.59ZM835.18,1029.35q.15,4.09,1.01,9.63,2.03,6.32,4.77,14.03-14.38,18.9-28.34,38.18-13.51,19.67-26.14,39.04-1.58-8.09-1.56-16.3.48-6.19,2.58-12.44,10.83-18.03,22.61-36.41,12.29-18.04,25.07-35.73ZM931.69,964.66q7.54,7.26,15.55,16.02,9,9.67,19.46,19.71-19.16,19.84-38,40.05-18.52,20.61-36.3,41.06-8.7-11.59-16.25-22.56-6.84-9.68-12.05-19.27,16.1-19.02,33.07-38.25,16.83-18.27,34.52-36.76ZM1084.04,915.48q13.39,10.77,27.82,22.29,15.4,12.31,31.15,25.76-21.6,19.39-43.73,39.69-21.68,20.49-42.97,41.19-14.8-14.69-28.83-28.49-13.24-12.91-25.64-24.91,20.37-19.65,40.58-38.54,20.59-18.63,41.61-36.98ZM1276.4,884.99q18.71,13.27,37.54,27.54,19.42,15.06,39.82,30.79-22.7,18.65-45.27,37.77-22.94,19.73-46.24,40.11-19.24-17.24-38.31-33.53-18.78-15.34-36.04-30.33,21.97-18.8,44.13-37.18,22.36-17.93,44.37-35.16ZM1490.61,874.59q21.43,15.65,42.96,32.02,22.1,17.08,44.1,34.78-21.5,16.95-42.81,34.67-21.98,18.34-44.36,37.28-22.35-18.98-44.29-37.34-21.82-17.69-43.31-34.65,22.57-17.75,44.71-34.79,21.56-16.33,43-31.96ZM1704.19,885.12q22,17.24,44.36,35.2,22.14,18.39,44.64,37.5-17.82,14.68-36.08,30.28-19.09,16.26-38.84,33.23-22.79-20.18-45.7-39.95-23.07-19.32-45.76-37.98,20.41-15.71,39.84-30.77,18.84-14.25,37.55-27.51ZM1896.53,915.72q21.02,18.36,41.6,37,20.72,19.37,40.56,38.56-12.41,11.99-25.65,24.89-14.05,13.81-28.86,28.47-21.28-20.7-42.94-41.21-21.6-19.94-43.7-39.71,16.3-13.08,31.16-25.74,14.44-11.52,27.83-22.27ZM2048.84,964.99q17.69,18.5,35,37.37,16.46,18.65,33.02,38.31-5.68,8.97-12.52,18.64-7.55,10.96-16.27,22.55-17.76-20.47-35.81-40.53-18.81-20.24-37.93-40.11,9.96-10.56,18.96-20.22,8.54-8.2,15.56-16.01ZM2145.31,1029.74q12.78,17.69,25.05,35.73,11.77,18.4,22.99,37.13,1.7,5.55,2.56,12.44-.36,7.51-1.58,16.3-12.6-19.39-26.09-39.08-13.93-19.3-28.73-38.87,3.21-7.07,4.78-14.03,1.32-4.88,1.01-9.62ZM774.79,1164.31q2.99,10.95,7.24,22.28,5.17,12.36,11.28,25.7c-12.6,19.51-13.35,20.67-24.11,38.43h-35.69c-.26-1.93-.55-4.22-.95-7.4q9.37-19.57,19.65-39.53,10.86-19.57,22.58-39.49ZM883.28,1119.81q10.19,13.89,21.23,28.75,12.22,15.17,24.95,31.7-18.43,21.75-36.67,44.19c-11.01,13.86-15.07,18.98-20.77,26.26h-25.14c-2.66-3.97-5.3-8.03-10.39-15.86q-9.6-15.62-18.24-30.5,15.32-21.14,31.34-42.39,16.33-20.71,33.69-42.17ZM1050.1,1086.26q16.06,16.79,33.31,33.82,17.66,18.06,36.08,36.7-22.41,22.89-44.11,45.45-21.46,22.74-42.69,45.81-17.27-19.64-33.89-38.48-16.05-17.89-30.96-35.69,20.01-22.15,40.11-43.76,20.98-22.13,42.15-43.85ZM1259.16,1065.47q20.56,18.87,41.71,38.31,21.46,20.11,43.65,40.63-23.72,22.4-47.27,45.02-23.65,22.96-47.1,46.08-21.69-21.22-42.52-42.29-20.45-20.4-40.49-40.08,22.87-22.38,45.85-44.48,22.86-21.64,46.17-43.18ZM1490.47,1058.51q22.87,20.49,46.06,41.47,23.24,21.42,46.77,43.27-22.67,21.45-45.83,43.29-23.57,22.22-47.14,44.82-23.82-22.62-47.08-44.9-23.11-21.88-46.1-43.27,23.54-21.83,46.79-43.23,23.61-21,46.53-41.45ZM1721.77,1065.84q22.85,21.32,46.09,43.25,22.95,22.13,45.77,44.55-20.07,19.66-40.55,40.03-21.14,20.77-42.85,41.97-23.44-23.13-46.75-45.91-23.86-22.83-47.21-45.1,21.85-20.65,43.71-40.55,20.77-19.62,41.78-38.25ZM1930.79,1086.97q21.13,21.75,41.7,43.43,20.44,22.13,40.41,44.31-15.24,17.28-31.01,35.65-16.66,18.82-34.2,37.97-20.95-22.65-42.67-45.83-21.69-22.57-43.74-45.11,18.46-18.61,36.14-36.65,16.89-17.43,33.38-33.76ZM2097.56,1120.78q16.96,20.85,33.61,42.22,15.98,21.27,31.28,42.43-8.66,14.87-18.29,30.47c-4.67,7.14-7.27,11.15-9.72,14.82h-26.41c-5.54-7.16-9.67-12.37-20.41-25.91q-17.93-21.87-36.65-44.21,13.08-15.96,24.97-31.69,11.41-14.26,21.63-28.14ZM2205.63,1164.73q11.71,19.92,22.86,40.24,9.97,19.22,19.33,38.8c-.28,2.9-.5,5.1-.7,6.95h-36.25c-10.19-16.65-11.07-18-23.49-37.33q6.13-13.32,11.32-25.68,3.93-12.04,6.93-22.99ZM769.19,1754.2c10.76,17.76,11.51,18.93,24.11,38.44q-6.11,13.32-11.29,25.69-4.24,11.33-7.23,22.29-11.72-19.91-22.58-39.5-10.28-19.95-19.65-39.52c.4-3.17.69-5.47.95-7.4h35.69ZM872.01,1754.2c5.68,7.29,9.75,12.4,20.77,26.27q18.24,22.43,36.67,44.18-12.73,16.53-24.96,31.7-11.02,14.86-21.22,28.75-17.35-21.45-33.69-42.17-16.02-21.24-31.34-42.38,8.64-14.88,18.25-30.5c5.08-7.83,7.72-11.88,10.38-15.86h25.14ZM1032.69,1756.88q21.24,23.07,42.69,45.81,21.7,22.56,44.11,45.44-18.43,18.66-36.08,36.72-17.25,17.02-33.31,33.81-21.17-21.72-42.15-43.84-20.1-21.62-40.11-43.77,14.91-17.8,30.97-35.69,16.62-18.85,33.88-38.48ZM1250.15,1769.42q23.45,23.12,47.1,46.08,23.55,22.63,47.27,45.03-22.19,20.52-43.66,40.62-21.14,19.44-41.7,38.32-23.31-21.55-46.17-43.18-22.98-22.09-45.85-44.49,20.04-19.68,40.49-40.09,20.83-21.06,42.52-42.28ZM1490.33,1773.58q23.57,22.6,47.14,44.82,23.16,21.83,45.83,43.29-23.53,21.84-46.77,43.27-23.19,20.97-46.06,41.47-23.33-20.48-46.53-41.45-23.25-21.41-46.79-43.24,22.99-21.39,46.1-43.27,23.26-22.28,47.08-44.88ZM1730.23,1769.29q21.71,21.19,42.86,41.97,20.48,20.36,40.54,40.02-22.83,22.42-45.77,44.55-23.24,21.94-46.09,43.25-21.01-18.62-41.78-38.25-21.86-19.9-43.71-40.55,23.35-22.27,47.21-45.11,23.31-22.77,46.75-45.89ZM1947.69,1756.61q17.54,19.16,34.2,37.97,15.77,18.37,31.01,35.65-19.97,22.18-40.41,44.32-20.57,21.68-41.7,43.42-16.49-16.33-33.38-33.76-17.68-18.04-36.14-36.65,22.05-22.53,43.74-45.11,21.72-23.19,42.67-45.83ZM2134.43,1754.2c2.45,3.68,5.06,7.67,9.72,14.82q9.63,15.6,18.29,30.47-15.29,21.16-31.28,42.45-16.65,21.37-33.61,42.21-10.23-13.88-21.63-28.14-11.89-15.73-24.97-31.68,18.72-22.34,36.65-44.22c10.74-13.54,14.87-18.75,20.41-25.91h26.41ZM2247.13,1754.2c.2,1.85.42,4.05.7,6.95q-9.36,19.59-19.33,38.81-11.15,20.32-22.86,40.23-3-10.95-6.93-22.99-5.19-12.36-11.32-25.67c12.43-19.33,13.3-20.67,23.51-37.33h36.24ZM786.48,1874.69q12.63,19.38,26.14,39.04,13.96,19.29,28.34,38.19-2.75,7.71-4.77,14.04-.86,5.54-1.01,9.62-12.78-17.68-25.07-35.72-11.78-18.39-22.61-36.41-2.1-6.24-2.58-12.44-.02-8.21,1.56-16.31ZM892.4,1923.42q17.78,20.46,36.3,41.06,18.84,20.21,38,40.05-10.47,10.05-19.46,19.71-8,8.76-15.55,16.03-17.69-18.48-34.52-36.76-16.97-19.22-33.07-38.25,5.21-9.59,12.05-19.27,7.54-10.97,16.25-22.56ZM1056.31,1960.52q21.29,20.69,42.97,41.19,22.13,20.3,43.73,39.7-15.74,13.44-31.15,25.75-14.43,11.52-27.82,22.29-21.02-18.35-41.61-36.98-20.21-18.88-40.58-38.54,12.4-12,25.64-24.91,14.02-13.81,28.83-28.5ZM1262.24,1983.73q23.31,20.36,46.24,40.11,22.56,19.11,45.27,37.77-20.39,15.72-39.82,30.78-18.83,14.27-37.54,27.53-22-17.22-44.37-35.17-22.16-18.38-44.13-37.17,17.26-15,36.04-30.35,19.07-16.29,38.31-33.52ZM1490.5,1991.59q22.38,18.94,44.36,37.28,21.3,17.72,42.81,34.67-22,17.69-44.1,34.77-21.53,16.38-42.96,32.02-21.44-15.62-43-31.96-22.14-17.03-44.71-34.79,21.49-16.97,43.31-34.64,21.94-18.37,44.29-37.35ZM1718.27,1983.6q19.75,16.97,38.84,33.24,18.26,15.59,36.08,30.28-22.51,19.1-44.64,37.49-22.37,17.94-44.36,35.2-18.71-13.27-37.55-27.52-19.43-15.04-39.84-30.76,22.7-18.66,45.76-37.98,22.91-19.77,45.7-39.95ZM1924.18,1960.27q14.81,14.68,28.86,28.48,13.24,12.9,25.65,24.89-19.84,19.19-40.56,38.56-20.58,18.64-41.6,37-13.39-10.75-27.83-22.27-14.86-12.66-31.16-25.75,22.1-19.77,43.7-39.71,21.65-20.51,42.94-41.21ZM2088.07,1923.06q8.71,11.6,16.27,22.55,6.84,9.68,12.52,18.64-16.55,19.65-33.02,38.31-17.31,18.87-35,37.37-7.02-7.82-15.56-16-9-9.68-18.96-20.23,19.13-19.86,37.93-40.11,18.05-20.06,35.81-40.53ZM2194.34,1873.57q1.22,8.79,1.58,16.31-.86,6.9-2.56,12.44-11.22,18.73-22.99,37.12-12.27,18.04-25.05,35.74.32-4.75-1.01-9.63-1.58-6.96-4.78-14.02,14.8-19.57,28.73-38.88,13.49-19.68,26.09-39.08ZM944.84,2067.95q18.19,17.36,36.76,34.34,18.35,16.07,37.7,32.25-7.35,3.2-13.25,5.71-5.08,1.38-8.68,2.09-17.56-14.24-34.76-28.91-16.79-15.12-33.8-31.2,2.8-1.75,6.03-5.08,4.78-3.81,9.99-9.21ZM1093.13,2120.16q20.82,16.71,42.15,33.06,20.51,15.28,41.54,30.19-13.08,6.59-25.17,12.26-11.01,4.76-21.59,8.28-20.46-13.49-39.83-27.08-20.3-14.81-39.53-29.63,9.21-5.31,19.69-11.38,11.1-7.25,22.74-15.7ZM1281.63,2152.83q21.24,15.3,43.24,30.16,20.71,13.87,42.16,27.16-17.97,9.43-34.79,18-16.3,7.6-32,14.17-20.51-11.56-41.21-23.91-20.87-13.1-41.89-26.95,15.01-8.23,30.72-17.45,16.31-10.2,33.77-21.17ZM1490.64,2163.73q20.25,13.51,39.94,26.23,19.67,11.82,38.55,22.79-19.82,11.91-40.27,23.05-19.56,10.21-38.15,19.54-19.34-9.31-38.92-19.53-19.74-11.06-40.28-23.01,18.86-10.97,38.53-22.82,19.67-12.72,40.59-26.25ZM1699.62,2152.49q16.82,11.18,33.13,21.36,15.71,9.22,30.73,17.45-21.01,13.86-41.86,26.97-20.7,12.37-41.21,23.93-15.69-6.57-32-14.14-16.83-8.57-34.09-18.11,20.73-13.18,42.11-27.24,21.32-14.69,43.19-30.23ZM1887.45,2119.92q12.28,8.04,23.37,15.28,9.86,6.48,19.73,11.33-19.87,15.27-39.49,29.7-20.04,13.99-39.79,27.15-10.59-3.5-22.3-7.9-12.09-5.67-25.18-12.25,21.02-14.92,42.18-30.58,20.66-16.02,41.47-32.73ZM2035.72,2067.63q5.2,5.39,9.99,9.2,3.23,3.33,6.03,5.08-16.39,15.54-33.17,30.69-17.15,14.7-34.7,28.97-4.24-.22-9.33-1.59-5.9-2.52-12.61-6.18,18.71-15.72,37.06-31.81,18.56-16.99,36.73-34.35ZM1306.1,2260.29q19.55,9.22,39.51,17.73,18.78,7.44,37.89,14.1-14.86,2.21-28.87,3.39-13.93.02-26.11-.81-17.98-4.78-36.52-10.53-19.05-6.7-38.58-14.36,11.96-.84,24.9-2.67,13.85-2.82,27.78-6.85ZM1490.72,2273.82q17.91,6.81,35.32,12.66,16.85,4.86,33.06,8.74-18.02,5.1-35.45,9.23-16.79,3.14-32.9,5.28-16.91-2.14-33.71-5.25-17.43-4.11-34.65-9.14,16.2-3.9,33.03-8.78,17.41-5.89,35.3-12.72ZM1674.56,2260.17q14.7,3.83,27.8,6.85,12.94,1.83,24.91,2.64-18.75,7.47-37.8,14.2-18.52,5.78-37.29,10.76-12.18.83-25.32.68-14.01-1.16-28.87-3.35,18.32-6.55,37.86-14.16,19.18-8.37,38.72-17.63ZM2129.6,1009.21q-.22,4.24-1.6,9.32-2.52,5.91-5.72,13.25-16.17-19.36-32.24-37.71-16.97-18.58-34.33-36.76,5.4-5.2,9.21-9.98,3.34-3.22,5.08-6.03,15.54,16.4,31.19,33.8,14.68,17.19,28.42,34.12ZM2191.33,1141.85q-3.52,10.59-7.94,22.3-5.67,12.08-12.26,25.17-14.91-21.02-30.19-41.55-16.36-21.32-33.05-42.14,8.45-11.65,15.29-23.37,6.48-9.86,11.79-19.07,14.82,19.24,29.63,39.54,13.59,19.37,26.72,39.13ZM2167.34,1250.72c4.14-7.09,5.72-9.99,11.82-21.08,6.95,10.57,10.41,15.81,13.79,21.08h-25.62ZM2192.97,1754.2c-3.39,5.27-6.85,10.52-13.81,21.09-6.1-11.1-7.68-13.99-11.82-21.09h25.63ZM2191.33,1863.08q-13.14,19.76-26.72,39.14-14.81,20.3-29.63,39.53-5.31-9.21-11.79-19.06-6.84-11.74-15.29-23.37,16.69-20.83,33.05-42.15,15.28-20.53,30.19-41.55,6.59,13.08,12.26,25.16,4.42,11.71,7.94,22.3ZM2129.6,1995.71q-13.74,16.93-28.42,34.12-15.65,17.4-31.19,33.81-1.74-2.81-5.08-6.03-3.81-4.78-9.21-9.98,17.36-18.19,34.33-36.76,16.07-18.35,32.24-37.72,3.21,7.35,5.72,13.25,1.38,5.09,1.6,9.32ZM1963.35,847.63q-4.08.15-9.62,1-6.32,2.03-14.03,4.77-18.9-14.39-38.85-28.76-18.98-13.1-39.06-26.11,8.8-1.21,16.31-1.56,6.89.87,12.44,2.56,18.72,11.24,37.11,23.02,18.03,12.3,35.71,25.08ZM2028.03,944.15q-7.27,7.54-16.03,15.54-9.68,8.99-20.24,18.95-19.85-19.14-39.51-37.5-20.61-18.53-41.06-36.31,11.6-8.7,22.56-16.25,9.69-6.83,18.66-12.51,19.64,16.58,38.27,33.05,18.86,17.33,37.35,35.03ZM2077.18,1096.51q-10.77,13.38-22.3,27.81-12.31,15.4-25.76,31.14-19.76-22.12-39.68-43.74-20.48-21.67-41.18-42.97,14.69-14.79,28.51-28.83,12.91-13.23,24.92-25.63,19.64,20.38,38.53,40.59,18.62,20.6,36.97,41.62ZM1992.21,1250.72c3.18-3.6,6.94-7.83,12.74-14.33q15.35-18.77,30.04-36.57,19.09,22.51,37.47,44.67l4.99,6.23h-85.25ZM2077.46,1754.2l-4.99,6.24q-18.38,22.15-37.47,44.67-14.69-17.8-30.04-36.57c-5.8-6.52-9.57-10.75-12.74-14.34h85.25ZM2077.18,1908.42q-18.35,21.03-36.97,41.61-18.89,20.21-38.53,40.59-12.01-12.39-24.92-25.63-13.81-14.02-28.51-28.83,20.69-21.3,41.18-42.97,19.92-21.61,39.68-43.74,13.46,15.74,25.76,31.14,11.53,14.43,22.3,27.82ZM2028.03,2060.78q-18.49,17.69-37.35,35.03-18.63,16.47-38.27,33.04-8.97-5.68-18.66-12.51-10.96-7.54-22.56-16.25,20.45-17.79,41.06-36.31,19.66-18.37,39.51-37.51,10.56,9.96,20.24,18.96,8.76,7.99,16.03,15.55ZM1963.35,2157.3q-17.68,12.79-35.71,25.08-18.39,11.78-37.11,23.02-5.55,1.69-12.44,2.56-7.51-.35-16.31-1.58,20.08-13.01,39.06-26.1,19.96-14.39,38.85-28.77,7.72,2.76,14.03,4.77,5.54.85,9.62,1.01ZM1828.41,787.2q-10.95,2.99-22.29,7.23-13.07,4.87-26.38,10.99-20.77-13.38-41.33-25.99-20.34-11.83-40.42-22.86,13.46-4.61,26.81-8.01,13.18-2.17,24.6-3.6,19.58,9.38,39.52,19.66,19.58,10.87,39.49,22.59ZM1872.89,895.7q-13.91,10.2-28.77,21.23-15.16,12.21-31.7,24.95-21.74-18.45-44.17-36.69-21.98-17.46-44.11-34.4,17.44-11.31,33.71-21.88,15.62-9.6,29.83-18.54,21.15,15.32,42.41,31.32,21.36,16.67,42.81,34.03ZM1906.4,1062.53q-16.79,16.05-34.23,32.93-18.05,17.67-36.67,36.11-22.52-22.06-45.07-43.77-23.18-21.74-45.79-42.71,19.16-17.52,37.99-34.16,18.38-15.77,35.68-30.99,22.16,19.99,44.27,40.44,22.11,20.98,43.83,42.16ZM1768.7,1250.72c10.71-10.91,14.38-14.54,30.71-30.68q20.1-20.77,40.1-40.48,22.08,22.5,44.19,45.47c12.48,13.24,17.86,18.94,24.14,25.69h-139.13ZM1907.84,1754.2c-6.28,6.77-11.66,12.46-24.14,25.71q-22.11,22.97-44.19,45.46-20-19.71-40.1-40.49c-16.33-16.14-20-19.76-30.71-30.68h139.13ZM1906.4,1942.39q-21.72,21.17-43.83,42.16-22.11,20.46-44.27,40.45-17.3-15.24-35.68-31-18.83-16.64-37.99-34.16,23.05-21.26,45.79-42.72,22.55-21.7,45.07-43.77,18.62,18.44,36.67,36.11,17.44,16.88,34.23,32.93ZM1872.89,2109.22q-21.45,17.35-42.81,34.04-21.26,15.98-42.41,31.31-14.21-8.93-29.83-18.55-16.27-10.57-33.71-21.88,22.13-16.94,44.11-34.4,22.43-18.25,44.17-36.69,16.54,12.72,31.7,24.94,14.86,11.04,28.77,21.23ZM1828.41,2217.73q-19.91,11.71-39.49,22.6-19.94,10.27-39.52,19.65-11.42-1.43-24.6-3.6-13.35-3.39-26.81-8.01,20.08-11.02,40.42-22.86,20.56-12.61,41.33-25.99,13.31,6.13,26.38,10.99,11.34,4.23,22.29,7.23ZM1657.32,750.49q-15.42,6.18-32.18,13.21-17.27,8.02-34.96,17.04-19.99-11.45-39.85-22.08-19.65-9.75-39.04-18.6,18.71-7.28,35.4-13.66,16.92-5.36,33.22-9.73,18.96,7.13,38.34,15.19,19.75,8.95,39.06,18.63ZM1679.15,866.16q-18.65,12.91-38.03,26.64-19.33,14.7-39.66,30.07-22.46-17.38-44.32-34.03-21.75-15.96-42.64-31.16,20.34-13.96,40.18-27.11,19.18-12.32,38.28-23.72,21.09,13.69,42.75,28.21,21.5,15.16,43.44,31.1ZM1695.2,1041.71q-20.82,18.5-42.06,37.66-21.8,19.73-43.79,40.08-23.72-21.67-47.11-42.84-22.91-20.66-46.05-40.87,22.58-19.26,44.43-37.95,21.81-18,42.79-35.38,22.95,19.09,45.56,38.59,23.29,20.19,46.23,40.71ZM1524.49,1250.72c16.77-16.18,19.11-18.42,39.94-38.33q23.19-22.04,45.92-43.69,23.87,22.67,47.43,45.49c19.86,19.36,23.2,22.61,37.28,36.54h-170.57ZM1695.06,1754.2c-14.08,13.94-17.42,17.19-37.28,36.54q-23.56,22.81-47.43,45.48-22.74-21.65-45.92-43.68c-20.82-19.9-23.16-22.16-39.94-38.34h170.57ZM1695.2,1963.21q-22.95,20.52-46.23,40.7-22.62,19.51-45.56,38.58-20.99-17.37-42.79-35.36-21.84-18.7-44.43-37.97,23.14-20.2,46.05-40.86,23.39-21.17,47.11-42.85,22,20.36,43.79,40.09,21.24,19.16,42.06,37.66ZM1679.15,2138.77q-21.94,15.93-43.44,31.09-21.65,14.52-42.75,28.2-19.1-11.39-38.28-23.71-19.84-13.14-40.18-27.11,20.89-15.2,42.64-31.16,21.85-16.64,44.32-34.03,20.33,15.37,39.66,30.06,19.38,13.73,38.03,26.65ZM1657.32,2254.43q-19.31,9.67-39.06,18.62-19.38,8.06-38.34,15.19-16.3-4.37-33.22-9.72-16.69-6.39-35.4-13.66,19.39-8.86,39.04-18.61,19.86-10.62,39.85-22.07,17.69,9.01,34.96,17.03,16.76,7.03,32.18,13.21ZM1469.36,740.05q-19.38,8.84-38.29,18.52-19.87,10.59-40.62,22.1-17.68-9.01-34.93-17.06-16.02-7.19-32.16-13.22,20.08-9.81,39.84-18.74,18.61-7.91,37.58-15.03,16.29,4.37,33.2,9.74,17.46,6.35,35.38,13.68ZM1466.75,857.63q-21.55,15.21-43.31,31.17-21.86,16.63-43.76,33.89-20.3-15.41-40.22-29.98-19.37-13.75-37.39-26.85,21.31-15.73,43.5-31.03,21-14.36,42.09-28.03,19.1,11.41,38.28,23.74,20.48,13.12,40.81,27.1ZM1464.31,1035.74q-22.72,20.14-46.08,40.84-23.4,21.15-46.75,42.69-22.37-20.25-43.74-40.15-21.65-19.02-41.99-37.72,22.98-20.49,45.79-40.48,23.14-19.63,45.59-38.56,21.5,17.3,42.77,35.4,22.31,18.66,44.4,37.98ZM1285.22,1250.72c14.42-14.2,17.65-17.36,37.39-36.64q23.9-22.95,47.46-45.46,22.73,21.67,45.91,43.72c20.81,19.93,23.14,22.16,39.93,38.38h-170.68ZM1455.9,1754.2c-16.77,16.21-19.11,18.46-39.93,38.38q-23.18,22.05-45.91,43.71-23.56-22.52-47.46-45.47c-19.74-19.27-22.97-22.42-37.39-36.63h170.68ZM1464.31,1969.19q-22.09,19.33-44.4,37.98-21.27,18.1-42.77,35.39-22.44-18.92-45.59-38.55-22.81-19.99-45.79-40.47,20.34-18.72,41.99-37.73,21.37-19.9,43.74-40.15,23.34,21.53,46.75,42.7,23.36,20.69,46.08,40.83ZM1466.75,2147.29q-20.33,13.99-40.81,27.11-19.17,12.33-38.28,23.74-21.09-13.67-42.09-28.03-22.18-15.3-43.5-31.04,18.02-13.11,37.39-26.85,19.92-14.57,40.22-29.98,21.9,17.25,43.76,33.89,21.76,15.94,43.31,31.16ZM1469.36,2264.87q-17.92,7.33-35.38,13.68-16.92,5.38-33.2,9.74-18.97-7.12-37.58-15.03-19.76-8.92-39.84-18.73,16.15-6.04,32.16-13.23,17.25-8.03,34.93-17.06,20.74,11.52,40.62,22.09,18.92,9.7,38.29,18.52ZM1283.42,756.23q-20.83,11.23-41.17,23.05-20.57,12.6-41.34,25.97-13.31-6.13-25.67-11.32-12.04-3.93-22.28-7.26,19.2-11.38,39.52-22.53,19.21-9.97,38.8-19.34,12.17,1.19,24.59,3.61,13.35,3.41,27.56,7.82ZM1256.46,870.64q-22.14,16.93-44.12,34.37-21.87,17.94-44.21,36.67-15.96-13.09-31.69-24.97-14.27-11.4-28.15-21.62,20.85-16.96,42.21-33.62,21.27-15.98,42.43-31.29,14.87,8.66,30.48,18.29,16.25,10.6,33.04,22.17ZM1236.32,1044.69q-23.09,21.21-45.86,42.64-22.98,21.99-45.51,44.04-18.61-18.45-36.65-36.13-17.43-16.88-33.77-33.36,21.75-21.14,43.43-41.72,22.11-20.44,44.29-40.41,17.28,15.23,35.65,31.01,18.83,16.65,38.43,33.94ZM1072.27,1250.72c6.38-6.81,11.73-12.48,24.42-25.93q22.11-22.95,44.54-45.78,19.66,20.06,40.03,40.54c16.25,16.54,19.78,20.14,30.82,31.17h-139.81ZM1212.08,1754.2c-11.04,11.04-14.57,14.65-30.83,31.18q-20.36,20.47-40.03,40.54-22.42-22.83-44.54-45.79c-12.7-13.44-18.04-19.11-24.42-25.92h139.81ZM1236.32,1960.24q-19.6,17.3-38.43,33.94-18.37,15.79-35.65,31.02-22.18-19.98-44.29-40.41-21.68-20.58-43.43-41.73,16.35-16.47,33.77-33.36,18.04-17.68,36.65-36.13,22.53,22.04,45.51,44.04,22.77,21.43,45.86,42.63ZM1256.46,2134.28q-16.79,11.56-33.04,22.17-15.61,9.62-30.48,18.29-21.16-15.3-42.43-31.29-21.36-16.66-42.21-33.63,13.89-10.2,28.15-21.61,15.73-11.89,31.69-24.97,22.33,18.73,44.21,36.66,21.98,17.45,44.12,34.38ZM1283.42,2248.7q-14.21,4.41-27.56,7.83-12.41,2.41-24.59,3.59-19.59-9.35-38.8-19.33-20.32-11.15-39.52-22.53,10.24-3.33,22.28-7.25,12.36-5.19,25.67-11.32,20.77,13.36,41.34,25.97,20.34,11.82,41.17,23.04ZM1118.85,798.31q-19.38,12.61-39.07,26.09-19.3,13.93-38.87,28.74-7.06-3.21-13.38-5.25-5.54-.86-10.28-.54,18.36-13.23,36.41-25.5,17.71-11.34,36.44-22.56,5.55-1.69,12.44-2.56,7.51.36,16.3,1.57ZM1069.39,904.58q-20.46,17.77-40.52,35.83-20.24,18.81-40.1,37.94-10.56-9.97-19.69-19.49-8.75-8.01-16.55-15.03,18.49-17.69,37.35-35.01,19.27-16.94,38.31-33.02,8.97,5.69,19.26,12.08,10.34,7.99,21.94,16.7ZM1032.22,1068.48q-20.7,21.29-41.21,42.95-19.92,21.6-39.7,43.71-13.09-16.3-25.75-31.15-11.52-14.44-22.28-27.83,18.36-21.01,36.99-41.6,19.37-20.73,39.04-41.08,11.99,12.42,24.88,25.68,13.33,14.52,28.01,29.32ZM902.63,1250.72l5.28-6.58q18.39-22.14,37.5-44.65,14.68,17.81,30.28,36.07c5.93,6.96,9.7,11.39,12.92,15.15h-85.97ZM988.61,1754.2l-12.92,15.15q-15.6,18.26-30.28,36.08-19.1-22.51-37.5-44.65l-5.28-6.58h85.97ZM1032.22,1936.44q-14.68,14.82-28.01,29.34-12.9,13.25-24.88,25.66-19.67-20.34-39.04-41.08-18.64-20.58-36.99-41.6,10.76-13.38,22.28-27.82,12.67-14.86,25.75-31.15,19.77,22.09,39.7,43.7,20.5,21.65,41.21,42.94ZM1069.39,2100.34q-11.59,8.7-21.94,16.71-10.29,6.39-19.26,12.06-19.04-16.07-38.31-33.02-18.86-17.32-37.35-35.01,7.8-7.01,16.55-15.02,9.12-9.52,19.69-19.49,19.86,19.11,40.1,37.94,20.05,18.04,40.52,35.82ZM1118.85,2206.61q-8.79,1.22-16.3,1.57-6.89-.85-12.44-2.55-18.73-11.22-36.44-22.56-18.05-12.26-36.41-25.49,4.74.31,10.28-.55,6.32-2.04,13.38-5.25,19.56,14.81,38.87,28.75,19.69,13.48,39.07,26.09ZM924.83,956.96q-17.37,18.18-33.84,36.15-16.6,18.94-32.31,37.66-3.67-6.71-6.2-12.62-1.36-5.08-1.59-9.32,14.27-17.54,28.97-34.71,15.14-16.78,30.69-33.18,2.3,2.24,5.08,6.04,4.36,4.22,9.19,9.98ZM872.57,1105.25q-16.71,20.81-32.71,41.47-15.66,21.16-30.58,42.18-6.59-13.09-11.91-25.86-4.75-11.02-8.25-21.61,13.15-19.75,27.14-39.78,14.43-19.62,29.7-39.49,5.29,9.22,11.34,19.72,7.25,11.1,15.27,23.37ZM786.94,1250.72c3.65-5.66,7.09-10.88,14.56-22.18,6.37,11.65,7.81,14.27,12.41,22.18h-26.97ZM813.91,1754.2c-4.61,7.93-6.04,10.53-12.41,22.18-7.47-11.3-10.91-16.51-14.56-22.18h26.97ZM872.57,1899.67q-8.03,12.28-15.27,23.39-6.05,10.5-11.34,19.71-15.27-19.86-29.7-39.49-13.99-20.02-27.14-39.78,3.5-10.59,8.25-21.6,5.32-12.79,11.91-25.88,14.92,21.02,30.58,42.19,16.01,20.66,32.71,41.47ZM924.83,2047.96q-4.84,5.77-9.19,9.99-2.78,3.79-5.08,6.02-15.55-16.4-30.69-33.17-14.7-17.17-28.97-34.72.23-4.24,1.6-9.32,2.52-5.91,6.18-12.62,15.71,18.71,32.31,37.67,16.47,17.95,33.84,36.14ZM826.27,1965.05h.01M1355.42,704.58c34.09-5.72,68.91-9.28,104.31-10.6,4.53-.09,5.61-.08,12.43.02q-16.12,1.62-32.94,4.25-17.48,3.62-34.77,8.15-14.74-1.72-29.45-2.33-13.03.29-25.91,1.72c3.17-.59,3.19-.59,6.34-1.2ZM1220.08,739.58c29.77-10.54,60.33-19.4,91.6-26.44q-16.38,4.18-33.48,9.11-18.43,6.1-37.35,13.16-9.79,1.28-19.19,3.78-.77.26-1.58.38ZM1117.73,784c25.06-13.01,50.87-24.77,77.38-35.16,2.29-.61,2.32-.62,5.37-1.61q8.8-1.87,18.75-2.8-19.05,8.75-38.52,18.41-19.86,10.57-39.33,21.72-9.25-.67-17.24-.44-6.71,1.08-12.81,3.39,2.86-1.52,6.39-3.49v-.02ZM1013.3,848.79c4.97-3.62,9.97-7.2,15.02-10.72-7.79,5.51-7.84,5.54-15.01,10.73h0ZM927.36,921.19c20.91-20.26,42.91-39.4,65.9-57.32.01.01.07-.02.68-.44q-17.03,13.67-33.69,27.8-16.87,15.1-32.76,30.1l-.13-.14ZM852.21,1004.73c17.96-22.97,37.14-44.93,57.42-65.81l.13.12q-15.57,16.45-30.15,32.71-14.15,16.64-27.84,33.66s-.03-.03.44-.69ZM736.92,1206.34c10.43-26.5,22.26-52.29,35.31-77.33,1.56-2.74,1.59-2.78,3.46-6.32q-2.31,6.1-3.76,13.52-.22,7.99.79,16.52-11.18,19.47-21.78,39.31-9.69,19.45-18.47,38.5.94-9.96,2.82-18.75,1-3.08,1.64-5.44h-.01ZM721,1250.72c2.05-6.23,4.15-12.43,6.34-18.59q.15.05-.11.82c-2.33,8.7-2.5,9.35-3.74,17.77h-2.49ZM727.34,1772.79c-2.18-6.15-4.29-12.35-6.34-18.59h2.49c1.25,8.43,1.41,9.07,3.74,17.78q.26.77.11.81ZM772.23,1875.92c-13.06-25.05-24.87-50.84-35.31-77.33h.01q-.65-2.35-1.64-5.43-1.88-8.8-2.82-18.76,8.78,19.05,18.47,38.49,10.6,19.85,21.78,39.31-1.01,8.53-.79,16.52,1.45,7.42,3.76,13.53c-1.87-3.55-1.89-3.59-3.46-6.33ZM837.09,1980.16c-3.66-4.99-7.26-10.03-10.8-15.11q5.13,7.25,10.34,14.47l.46.63ZM909.63,2066.01c-20.29-20.89-39.47-42.85-57.42-65.82h0q-.47-.66-.44-.68,13.69,17.01,27.84,33.65,14.58,16.26,30.15,32.71l-.13.13ZM993.27,2141.05c-22.99-17.91-45-37.06-65.9-57.31l.13-.14q15.88,15,32.76,30.11,16.66,14.12,33.69,27.79c-.61-.42-.67-.44-.68-.44ZM1028.32,2166.86c-5.05-3.53-10.05-7.09-15.02-10.73h0c7.17,5.18,7.22,5.21,15.01,10.73ZM1195.11,2256.09c-26.5-10.4-52.32-22.16-77.38-35.16v-.02q-3.55-1.97-6.41-3.48,6.1,2.3,12.81,3.37,7.99.23,17.24-.44,19.48,11.14,39.33,21.72,19.47,9.67,38.52,18.41-9.95-.92-18.75-2.8c-3.04-.99-3.08-.99-5.37-1.6ZM1311.68,2291.78c-31.25-7.04-61.83-15.9-91.6-26.43q.81.11,1.58.37,9.4,2.5,19.19,3.79,18.93,7.05,37.35,13.16,17.08,4.93,33.48,9.11ZM1459.73,2310.94c-35.39-1.31-70.22-4.88-104.31-10.6-3.15-.61-3.17-.61-6.34-1.19q12.89,1.43,25.91,1.72,14.71-.61,29.45-2.34,17.29,4.53,34.77,8.15,16.83,2.63,32.94,4.26c-6.82.1-7.89.1-12.43.01ZM1625.24,2300.27c-33.87,5.69-68.48,9.26-103.64,10.62-5.14.13-6.16.11-13.06.02q16.12-1.64,32.94-4.27,17.48-3.63,35.57-8.25,14.74,1.71,28.65,2.41,13.83-.44,26.7-1.88-3.97.72-7.16,1.36ZM1760.6,2265.18c-29.8,10.57-60.4,19.45-91.69,26.52q16.47-4.22,33.56-9.16,18.42-6.11,37.35-13.18,10.54-1.55,19.95-4.06s0,.01.82-.11ZM1863.74,2220.27c-25.05,13.06-50.85,24.9-77.35,35.33h0q-3.11.93-5.44,1.63-9.54,2.17-18.75,2.84,19.05-8.79,38.5-18.47,19.1-10.29,38.58-21.44,9.25.66,17.24.43,7.42-1.46,13.52-3.78c-3.54,1.88-3.58,1.91-6.3,3.46ZM1967.43,2155.76c-4.83,3.55-9.69,7.03-14.61,10.44h.01q7.26-5.15,14.46-10.36s0,0,.13-.09ZM2053.75,2082.87c-20.88,20.27-42.82,39.45-65.77,57.39h0q-.65.48-.69.44,17.02-13.7,33.65-27.85,16.26-14.58,32.13-29.58c.44-.26.6-.37.68-.39ZM2128.33,1999.79c-17.84,22.84-36.86,44.69-56.99,65.46.13-.18.11-.2.02-.28q14.99-15.88,29.56-32.15,14.14-16.65,27.83-33.68s.03.03-.4.62h0l-.02.03ZM2154.19,1964.7c-3.38,4.84-6.82,9.66-10.31,14.43h0q5.2-7.2,10.31-14.43ZM2243.47,1798.12c-10.41,26.49-22.19,52.28-35.22,77.31q-1.6,2.8-3.49,6.37,2.68-6.81,3.75-13.51.22-7.99-.44-17.24,11.13-19.5,21.4-38.61,9.68-19.45,18.71-39.26-.92,9.96-3.08,19.51-.71,2.33-1.64,5.43ZM2259.22,1754.2c-1.99,6.09-4.05,12.13-6.18,18.14q.12-.82.38-1.59c2.04-7.84,2.22-8.56,3.4-16.55h2.41ZM2253.04,1232.59c2.13,6.01,4.19,12.06,6.17,18.13h-2.4c-1.17-7.99-1.36-8.7-3.4-16.55q-.26-.77-.38-1.58ZM2208.25,1129.49c13.03,25.03,24.82,50.82,35.22,77.3q.93,3.1,1.64,5.44,2.16,9.55,3.08,19.51-9.03-19.8-18.71-39.26-10.27-19.11-21.4-38.6.65-9.24.44-17.24-1.07-6.7-3.75-13.52,1.89,3.57,3.49,6.38ZM2143.88,1025.78c3.49,4.78,6.93,9.59,10.31,14.45q-5.1-7.22-10.31-14.44h0ZM2071.34,939.67c20.13,20.78,39.16,42.62,56.99,65.47l.02.03h0c.43.59.43.6.4.63q-13.69-17.02-27.83-33.68-14.57-16.26-29.56-32.15c.09-.08.11-.1-.02-.3ZM1987.97,864.66c22.96,17.94,44.9,37.12,65.77,57.4-.08-.03-.24-.13-.68-.4q-15.87-15.01-32.13-29.59-16.63-14.15-33.65-27.85s.04-.04.69.44ZM1952.82,838.72c4.92,3.42,9.78,6.91,14.61,10.44q-.12-.08-.13-.08-7.2-5.22-14.46-10.36h-.01ZM1786.38,749.33c26.5,10.43,52.31,22.27,77.35,35.33,2.72,1.55,2.76,1.57,6.3,3.45q-6.1-2.31-13.52-3.77-7.99-.22-17.24.43-19.48-11.16-38.58-21.44-19.45-9.7-38.5-18.48,9.21.67,18.75,2.83,2.33.71,5.44,1.64ZM1668.92,713.23c31.29,7.05,61.89,15.95,91.69,26.52l-.82-.12q-9.4-2.51-19.95-4.06-18.94-7.07-37.35-13.18-17.1-4.94-33.56-9.16ZM1521.6,694.03c35.18,1.34,69.77,4.93,103.64,10.63q3.19.62,7.16,1.35-12.87-1.44-26.7-1.87-13.92.7-28.65,2.4-18.08-4.62-35.57-8.25-16.83-2.64-32.94-4.27c6.9-.08,7.92-.1,13.06.02Z"/><g class="cls-5"><rect class="cls-2" x="721" y="693.9" width="1538.22" height="1617.12"/></g><path class="cls-3" d="M759.77,1578.93s-9.52-.68-35.02-.68-35.7.68-35.7.68l3.4-5.78c6.46-12.24,8.5-15.3,8.5-117.3v-95.2c-.34,1.7-3.4,19.04-7.48,28.56l-65.96,155.04-65.28-154.36c-3.74-8.84-7.48-25.84-7.82-28.56v97.92c0,98.94,1.36,100.3,8.5,113.9l3.06,5.78s-10.2-.68-29.58-.68c-20.74,0-29.58.68-29.58.68l3.06-5.78c6.12-12.24,8.5-15.3,8.5-117.3s-1.36-100.3-8.5-113.9l-3.06-5.78s15.64.68,43.18.68,38.08-1.02,38.08-1.02l39.78,94.86c5.1,12.24,6.12,18.02,6.46,19.72,0-1.02,1.02-6.12,6.8-19.38l40.12-94.86s10.2.68,37.06.68,41.48-.68,41.48-.68l-3.06,5.78c-6.46,12.24-8.5,15.3-8.5,117.3s1.36,100.3,8.5,113.9l3.06,5.78Z"/><path class="cls-3" d="M954.59,1578.25c-29.92,0-42.16.68-42.16.68,4.42-3.06,11.22-8.84,11.22-21.42,0-11.9-4.76-31.62-11.56-56.78l-3.4-12.58h-73.78c-5.78,25.16-9.86,48.96-9.86,65.96s4.76,21.76,9.18,24.82c0,0-12.24-.68-35.36-.68-21.76,0-32.64.68-32.64.68,5.1-4.08,8.5-8.5,12.92-19.04,8.5-20.74,28.9-140.08,75.14-223.72,0,0,8.84.68,31.28.68s32.3-.68,32.3-.68l45.22,162.18c13.26,47.6,18.36,68.34,30.94,80.58,0,0-11.9-.68-39.44-.68ZM881.15,1376.97c-2.38-9.52-4.08-19.38-4.08-19.38-9.52,17.34-23.8,58.14-35.02,100.3h59.5l-20.4-80.92Z"/><path class="cls-3" d="M1142.95,1566.69l-.68,11.9h-114.92c-18.36,0-26.18.34-26.18.34l3.06-5.78c6.8-12.92,8.5-15.3,8.5-117.3s-1.36-100.3-8.5-113.9l-3.06-5.78s10.2.68,37.06.68,36.38-.68,36.38-.68l-3.4,5.78c-7.48,12.92-9.18,18.36-9.18,103.7v103.36h24.48c42.16,0,47.6-9.86,60.18-28.22,0,0-1.7,13.26-3.74,45.9Z"/><path class="cls-3" d="M1234.41,1578.93s-10.88-.68-36.04-.68-36.38.68-36.38.68l3.06-5.78c6.8-12.92,8.5-15.3,8.5-117.3s-1.36-100.3-8.5-113.9l-3.06-5.78s10.2.68,36.04.68,36.38-.68,36.38-.68l-3.06,5.78c-6.8,12.92-8.5,15.3-8.5,117.3s1.36,100.3,8.5,113.9l3.06,5.78Z"/><path class="cls-2" d="M1443.17,1580.97c-96.56,0-121.04-61.54-121.04-120.02,0-83.98,45.56-126.82,123.42-126.82,44.2,0,61.88,9.86,61.88,9.86,0,0-.68,7.48-.68,25.84,0,16.32.68,27.2.68,27.2-14.62-21.08-26.86-33.32-58.48-33.32-41.14,0-74.12,29.58-74.12,95.54,0,54.74,19.38,91.8,72.76,91.8,31.96,0,45.22-12.92,59.84-34,0,0-.68,10.88-.68,29.58,0,16.66.68,24.48.68,24.48,0,0-22.44,9.86-64.26,9.86Z"/><path class="cls-2" d="M1678.45,1564.99l-.34,9.86s-15.3,4.42-58.14,4.42-57.8-3.74-71.06-15.98c-15.3-13.6-16.66-30.94-16.66-62.56v-82.28c0-31.62,1.7-51,17-64.94,13.6-11.9,30.26-17.34,72.08-17.34,38.76,0,56.1,2.72,56.1,2.72,0,0-.34,6.46-.34,21.42,0,15.98.68,23.46.68,24.14-.34-.34-2.38-3.4-11.22-9.18-6.46-4.08-20.74-9.52-39.44-9.52-14.28,0-31.62,1.02-39.44,13.94-4.76,7.48-6.12,14.96-6.12,39.44v23.46h36.72c15.98,0,29.24-1.7,37.4-6.46,8.84-5.1,11.56-8.16,12.24-8.84,0,.34-1.02,9.86-1.02,30.26s1.02,29.24,1.02,29.92c-.34-.34-2.72-3.4-12.24-9.18-8.16-4.76-21.42-6.46-37.4-6.46h-36.72v25.5c0,24.14,1.02,31.62,5.78,39.1,7.82,12.92,26.52,12.92,39.44,12.92,31.62,0,42.84-11.9,55.42-30.26,0,0-2.04,17.34-3.74,45.9Z"/><path class="cls-2" d="M1918.15,1341.95c-6.12,11.9-8.5,15.3-8.5,117.3v120.02s-8.5-1.02-26.52-1.02c-19.72,0-33.32,1.02-33.32,1.02l-87.38-174.08c-5.78-11.56-8.84-23.8-9.18-24.82v78.88c0,98.94,1.36,100.3,8.5,113.9l3.06,5.78s-9.18-.68-29.58-.68-29.58.68-29.58.68l3.06-5.78c6.12-12.24,8.5-15.3,8.5-117.3s-1.36-100.3-8.5-113.9l-3.06-5.78s10.88.68,37.74.68c22.78,0,34-.68,34-.68l86.7,173.06c7.48,14.62,9.52,25.5,9.52,25.5v-78.88c0-98.94-1.36-100.3-8.5-113.9l-3.06-5.78s9.18.68,29.58.68,29.58-.68,29.58-.68l-3.06,5.78Z"/><path class="cls-2" d="M2117.39,1382.75c-.34-.34-2.38-3.4-11.9-9.18-8.16-4.76-21.08-8.5-37.06-8.5h-20.06v94.18c0,98.94,1.36,100.3,8.5,113.9l3.06,5.78s-10.54-.68-36.04-.68-36.38.68-36.38.68l3.06-5.78c6.8-12.92,8.5-15.3,8.5-117.3v-90.78h-19.72c-15.98,0-28.9,3.74-37.06,8.5-8.84,5.44-11.9,8.5-12.24,9.18,0-.34,1.02-8.5,1.02-24.82,0-14.96-.34-21.42-.34-21.42h186.32s-.34,6.46-.34,21.42c0,16.32.68,24.14.68,24.82Z"/><path class="cls-2" d="M2279.91,1564.99l-.34,9.86s-15.3,4.42-58.14,4.42-57.8-3.74-71.06-15.98c-15.3-13.6-16.66-30.94-16.66-62.56v-82.28c0-31.62,1.7-51,17-64.94,13.6-11.9,30.26-17.34,72.08-17.34,38.76,0,56.1,2.72,56.1,2.72,0,0-.34,6.46-.34,21.42,0,15.98.68,23.46.68,24.14-.34-.34-2.38-3.4-11.22-9.18-6.46-4.08-20.74-9.52-39.44-9.52-14.28,0-31.62,1.02-39.44,13.94-4.76,7.48-6.12,14.96-6.12,39.44v23.46h36.72c15.98,0,29.24-1.7,37.4-6.46,8.84-5.1,11.56-8.16,12.24-8.84,0,.34-1.02,9.86-1.02,30.26s1.02,29.24,1.02,29.92c-.34-.34-2.72-3.4-12.24-9.18-8.16-4.76-21.42-6.46-37.4-6.46h-36.72v25.5c0,24.14,1.02,31.62,5.78,39.1,7.82,12.92,26.52,12.92,39.44,12.92,31.62,0,42.84-11.9,55.42-30.26,0,0-2.04,17.34-3.74,45.9Z"/><path class="cls-2" d="M2496.15,1578.93s-11.9-.68-32.98-.68c-19.38,0-31.28.68-31.28.68,0,0,3.4-2.72,3.4-10.2,0-44.54-25.84-95.2-57.46-108.46,21.76-2.38,53.04-9.52,53.04-54.74,0-36.72-21.08-42.84-49.98-42.84-8.84,0-14.62.68-14.62.68v110.84c0,82.96,1.7,86.02,8.5,98.94l3.06,5.78s-10.54-.68-35.02-.68-35.36.68-35.36.68l3.06-5.78c6.46-12.24,8.5-15.3,8.5-117.3s-1.36-100.3-8.5-113.9l-3.06-5.78s11.9.68,28.56.68c10.54,0,33.66-.68,44.2-.68,53.38,0,101.66,5.1,101.66,62.9,0,15.3-4.76,53.72-49.3,62.22,53.38,20.4,48.96,103.02,60.86,114.92l2.72,2.72Z"/><path class="cls-1" d="M570.77,1666.02c-.78,7.42-3.96,13.17-9.54,17.26-5.59,4.1-13.06,6.14-22.41,6.14-6.97,0-13-1.22-18.09-3.65-5.09-2.43-9.03-6-11.83-10.71-2.79-4.7-4.19-10.29-4.19-16.77s1.36-11.56,4.07-16.27c2.71-4.7,6.63-8.35,11.74-10.96,5.12-2.6,11.25-3.9,18.38-3.9,8.58,0,15.42,1.74,20.54,5.23,5.12,3.49,8.53,8.74,10.25,15.77l-17.43,1.99c-1.05-3.15-2.64-5.44-4.77-6.85-2.13-1.41-5.02-2.12-8.67-2.12-5.04,0-8.96,1.51-11.79,4.52-2.82,3.02-4.23,7.21-4.23,12.57s1.42,9.63,4.27,12.62c2.85,2.99,6.87,4.48,12.08,4.48,4.04,0,7.21-.76,9.5-2.28,2.3-1.52,3.8-3.89,4.52-7.1h17.6Z"/><path class="cls-1" d="M625.8,1628.67h17.43v33.45c0,9.24-2.49,16.1-7.47,20.58s-12.62,6.72-22.91,6.72-17.93-2.24-22.91-6.72-7.47-11.34-7.47-20.58v-33.45h17.43v34.69c0,4.15,1.04,7.19,3.11,9.13,2.07,1.94,5.35,2.9,9.84,2.9s7.76-.97,9.84-2.9c2.08-1.94,3.11-4.98,3.11-9.13v-34.69Z"/><path class="cls-1" d="M659.09,1687.93v-59.26h17.43v44.99h33.95l-1.83,14.28h-49.55Z"/><path class="cls-1" d="M730.13,1687.93v-44.99h-22.08v-14.28h61.59v14.28h-22.08v44.99h-17.43Z"/><path class="cls-1" d="M823.01,1628.67h17.43v33.45c0,9.24-2.49,16.1-7.47,20.58s-12.62,6.72-22.91,6.72-17.93-2.24-22.91-6.72-7.47-11.34-7.47-20.58v-33.45h17.43v34.69c0,4.15,1.04,7.19,3.11,9.13,2.07,1.94,5.35,2.9,9.84,2.9s7.76-.97,9.84-2.9c2.08-1.94,3.11-4.98,3.11-9.13v-34.69Z"/><path class="cls-1" d="M898.21,1687.93l-11.87-20.09h-13.61v20.09h-16.43v-59.26h30.29c17.65,0,26.48,6.56,26.48,19.67,0,3.93-.86,7.21-2.57,9.84-1.72,2.63-4.34,4.75-7.88,6.35l14.52,23.41h-18.92ZM885.51,1655.23c3.76,0,6.5-.55,8.22-1.66,1.71-1.11,2.57-2.91,2.57-5.4s-.82-4.19-2.45-5.27c-1.63-1.08-4.36-1.62-8.18-1.62h-12.95v13.94h12.78Z"/><path class="cls-1" d="M927.59,1687.93v-59.26h51.63v13.36h-34.53v9.05h32.79v13.36h-32.79v10.13h36.52l-1.66,13.36h-51.96Z"/><path class="cls-2" d="M1045.62,1658.3c0,3.98-1.36,7.24-4.07,9.75-2.71,2.52-6.22,3.78-10.54,3.78s-7.83-1.26-10.54-3.78c-2.71-2.52-4.07-5.77-4.07-9.75s1.36-7.23,4.07-9.75c2.71-2.52,6.22-3.78,10.54-3.78s7.83,1.26,10.54,3.78c2.71,2.52,4.07,5.77,4.07,9.75Z"/><path class="cls-2" d="M1147.62,1666.02c-.78,7.42-3.96,13.17-9.54,17.26-5.59,4.1-13.06,6.14-22.41,6.14-6.97,0-13-1.22-18.09-3.65-5.09-2.43-9.03-6-11.83-10.71-2.79-4.7-4.19-10.29-4.19-16.77s1.36-11.56,4.07-16.27c2.71-4.7,6.63-8.35,11.74-10.96,5.12-2.6,11.25-3.9,18.38-3.9,8.58,0,15.42,1.74,20.54,5.23,5.12,3.49,8.53,8.74,10.25,15.77l-17.43,1.99c-1.05-3.15-2.64-5.44-4.77-6.85-2.13-1.41-5.02-2.12-8.67-2.12-5.04,0-8.96,1.51-11.79,4.52-2.82,3.02-4.23,7.21-4.23,12.57s1.42,9.63,4.27,12.62c2.85,2.99,6.87,4.48,12.08,4.48,4.04,0,7.21-.76,9.5-2.28,2.3-1.52,3.8-3.89,4.52-7.1h17.6Z"/><path class="cls-2" d="M1227.97,1658.3c0,6.31-1.4,11.8-4.19,16.48-2.79,4.68-6.86,8.29-12.2,10.83-5.34,2.54-11.72,3.82-19.13,3.82s-13.34-1.22-18.59-3.65c-5.26-2.43-9.32-5.99-12.2-10.67-2.88-4.67-4.32-10.28-4.32-16.81s1.4-11.8,4.19-16.48c2.79-4.68,6.86-8.29,12.2-10.83,5.34-2.54,11.72-3.82,19.13-3.82s13.33,1.22,18.59,3.65c5.26,2.44,9.32,5.99,12.2,10.67,2.88,4.68,4.32,10.28,4.32,16.81ZM1209.87,1658.3c0-5.42-1.49-9.63-4.48-12.62-2.99-2.99-7.22-4.48-12.7-4.48s-9.73,1.49-12.74,4.48c-3.02,2.99-4.52,7.19-4.52,12.62s1.49,9.63,4.48,12.62c2.99,2.99,7.22,4.48,12.7,4.48s9.72-1.49,12.74-4.48c3.02-2.99,4.52-7.19,4.52-12.62Z"/><path class="cls-2" d="M1300.26,1687.93v-34.53l-15.35,34.53h-12.78l-15.35-34.36v34.36h-15.77v-59.26h19.67l18.18,40.34,18.09-40.34h19.34v59.26h-16.02Z"/><path class="cls-2" d="M1392.06,1687.93v-34.53l-15.35,34.53h-12.78l-15.35-34.36v34.36h-15.77v-59.26h19.67l18.18,40.34,18.09-40.34h19.34v59.26h-16.02Z"/><path class="cls-2" d="M1467.26,1628.67h17.43v33.45c0,9.24-2.49,16.1-7.47,20.58s-12.62,6.72-22.91,6.72-17.93-2.24-22.91-6.72-7.47-11.34-7.47-20.58v-33.45h17.43v34.69c0,4.15,1.04,7.19,3.11,9.13,2.07,1.94,5.35,2.9,9.84,2.9s7.76-.97,9.84-2.9c2.08-1.94,3.11-4.98,3.11-9.13v-34.69Z"/><path class="cls-2" d="M1547.19,1687.93l-30.05-36.02v36.02h-16.6v-59.26h15.44l30.05,36.02v-36.02h16.6v59.26h-15.44Z"/><path class="cls-2" d="M1579.14,1687.93v-59.26h17.43v59.26h-17.43Z"/><path class="cls-2" d="M1629.36,1687.93v-44.99h-22.08v-14.28h61.59v14.28h-22.08v44.99h-17.43Z"/><path class="cls-2" d="M1699.91,1687.93v-22.66l-24.65-36.6h18.92l14.69,22.83,14.77-22.83h18.34l-24.65,36.6v22.66h-17.43Z"/><path class="cls-2" d="M1803.82,1658.3c0,3.98-1.36,7.24-4.07,9.75-2.71,2.52-6.22,3.78-10.54,3.78s-7.83-1.26-10.54-3.78c-2.71-2.52-4.07-5.77-4.07-9.75s1.36-7.23,4.07-9.75c2.71-2.52,6.22-3.78,10.54-3.78s7.83,1.26,10.54,3.78c2.71,2.52,4.07,5.77,4.07,9.75Z"/><path class="cls-3" d="M1905.83,1666.02c-.78,7.42-3.96,13.17-9.54,17.26-5.59,4.1-13.06,6.14-22.41,6.14-6.97,0-13-1.22-18.09-3.65-5.09-2.43-9.03-6-11.83-10.71-2.79-4.7-4.19-10.29-4.19-16.77s1.36-11.56,4.07-16.27c2.71-4.7,6.63-8.35,11.74-10.96,5.12-2.6,11.25-3.9,18.38-3.9,8.58,0,15.42,1.74,20.54,5.23,5.12,3.49,8.53,8.74,10.25,15.77l-17.43,1.99c-1.05-3.15-2.64-5.44-4.77-6.85-2.13-1.41-5.02-2.12-8.67-2.12-5.04,0-8.96,1.51-11.79,4.52-2.82,3.02-4.23,7.21-4.23,12.57s1.42,9.63,4.27,12.62c2.85,2.99,6.87,4.48,12.08,4.48,4.04,0,7.21-.76,9.5-2.28,2.3-1.52,3.8-3.89,4.52-7.1h17.6Z"/><path class="cls-3" d="M1986.17,1658.3c0,6.31-1.4,11.8-4.19,16.48-2.79,4.68-6.86,8.29-12.2,10.83-5.34,2.54-11.72,3.82-19.13,3.82s-13.34-1.22-18.59-3.65c-5.26-2.43-9.32-5.99-12.2-10.67-2.88-4.67-4.32-10.28-4.32-16.81s1.4-11.8,4.19-16.48c2.79-4.68,6.86-8.29,12.2-10.83,5.34-2.54,11.72-3.82,19.13-3.82s13.33,1.22,18.59,3.65c5.26,2.44,9.32,5.99,12.2,10.67,2.88,4.68,4.32,10.28,4.32,16.81ZM1968.08,1658.3c0-5.42-1.49-9.63-4.48-12.62-2.99-2.99-7.22-4.48-12.7-4.48s-9.73,1.49-12.74,4.48c-3.02,2.99-4.52,7.19-4.52,12.62s1.49,9.63,4.48,12.62c2.99,2.99,7.22,4.48,12.7,4.48s9.72-1.49,12.74-4.48c3.02-2.99,4.52-7.19,4.52-12.62Z"/><path class="cls-3" d="M2045.85,1687.93l-30.05-36.02v36.02h-16.6v-59.26h15.44l30.05,36.02v-36.02h16.6v59.26h-15.44Z"/><path class="cls-3" d="M2124.45,1687.93l-30.05-36.02v36.02h-16.6v-59.26h15.44l30.05,36.02v-36.02h16.6v59.26h-15.44Z"/><path class="cls-3" d="M2156.41,1687.93v-59.26h51.63v13.36h-34.53v9.05h32.79v13.36h-32.79v10.13h36.52l-1.66,13.36h-51.96Z"/><path class="cls-3" d="M2286.55,1666.02c-.78,7.42-3.96,13.17-9.54,17.26-5.59,4.1-13.06,6.14-22.41,6.14-6.97,0-13-1.22-18.09-3.65-5.09-2.43-9.03-6-11.83-10.71-2.79-4.7-4.19-10.29-4.19-16.77s1.36-11.56,4.07-16.27c2.71-4.7,6.63-8.35,11.74-10.96,5.12-2.6,11.25-3.9,18.38-3.9,8.58,0,15.42,1.74,20.54,5.23,5.12,3.49,8.53,8.74,10.25,15.77l-17.43,1.99c-1.05-3.15-2.64-5.44-4.77-6.85-2.13-1.41-5.02-2.12-8.67-2.12-5.04,0-8.96,1.51-11.79,4.52-2.82,3.02-4.23,7.21-4.23,12.57s1.42,9.63,4.27,12.62c2.85,2.99,6.87,4.48,12.08,4.48,4.04,0,7.21-.76,9.5-2.28,2.3-1.52,3.8-3.89,4.52-7.1h17.6Z"/><path class="cls-3" d="M2314.35,1687.93v-44.99h-22.08v-14.28h61.59v14.28h-22.08v44.99h-17.43Z"/><path class="cls-3" d="M2364.57,1687.93v-59.26h51.63v13.36h-34.53v9.05h32.79v13.36h-32.79v10.13h36.52l-1.66,13.36h-51.96Z"/><path class="cls-3" d="M2431.3,1687.93v-59.26h27.89c11.84,0,20.82,2.5,26.93,7.51,6.11,5.01,9.17,12.38,9.17,22.12s-3.21,16.77-9.63,21.91c-6.42,5.15-15.52,7.72-27.31,7.72h-27.06ZM2458.77,1673.99c12.5,0,18.76-5.26,18.76-15.77s-6-15.6-18.01-15.6h-10.96v31.37h10.21Z"/></svg>